<?xml version="1.0" encoding="utf-8"?>
<!-- Generator: Adobe Illustrator 25.2.3, SVG Export Plug-In . SVG Version: 6.00 Build 0)  -->
<svg version="1.1" id="Layer_1" xmlns="http://www.w3.org/2000/svg" xmlns:xlink="http://www.w3.org/1999/xlink" x="0px" y="0px"
	 viewBox="0 0 608.8 312.5" style="enable-background:new 0 0 608.8 312.5;" xml:space="preserve">
<style type="text/css">
	.st0{fill:#DDD4C6;}
	.st1{fill:#86969C;}
	.st2{fill:#D1D3D4;}
	.st3{fill:#C0C2C4;}
	.st4{fill:#D3D5D6;}
	.st5{fill:#A7A9AC;}
	.st6{fill:#445274;}
	.st7{fill:none;stroke:#17A89D;stroke-width:1.5;stroke-miterlimit:10;}
	.st8{fill:#E6E7E8;}
	.st9{fill:#DC2327;}
	.st10{fill:#0BABCE;}
</style>
<path class="st0" d="M319.7,183.8"/>
<path class="st1" d="M319.7,160.9v-23.4l0,0v-30h-35.6c-16.2,0-30.3,9.6-36.8,23.4H128c-33.8,0-65.6,13.2-89.5,37.1
	S1.4,223.7,1.4,257.5l0,0h102.1l0,0c0-13.5,10.9-24.4,24.4-24.4h117.8c5.6,15.8,20.7,27.1,38.4,27.1h35.6v-30l0,0V203h-46.3v-42.1
	H319.7z M243.5,203H128c-30,0-54.4,24.4-54.4,54.4H31.5l0,0c0-53.3,43.2-96.5,96.5-96.5h115.4V203H243.5z"/>
<path class="st2" d="M319.7,137.5h-35.6c-5.9,0-10.7,4.8-10.7,10.7v71.2c0,5.9,4.8,10.7,10.7,10.7h35.6V137.5z"/>
<path class="st2" d="M128,203h191.7v-42.1H128c-53.3,0-96.5,43.2-96.5,96.5l0,0h42.1C73.6,227.3,98,203,128,203z"/>
<path class="st2" d="M319.7,137.5h35.6c5.9,0,10.7,4.8,10.7,10.7v71.2c0,5.9-4.8,10.7-10.7,10.7h-35.6V137.5z"/>
<path class="st2" d="M511.5,203H319.7v-42.1h191.7c53.3,0,96.5,43.2,96.5,96.5l0,0h-42.1C565.9,227.3,541.5,203,511.5,203z"/>
<rect x="308.5" y="89.5" class="st2" width="22.6" height="50.4"/>
<path class="st2" d="M333.6,89.5H306c-1.7,0-3-1.4-3-3v-8.3c0-1.7,1.4-3,3-3h27.6c1.7,0,3,1.4,3,3v8.3
	C336.6,88.2,335.2,89.5,333.6,89.5z"/>
<g>
	<rect x="265.8" y="160.9" class="st3" width="1" height="42.1"/>
</g>
<g>
	<rect x="252.3" y="160.9" class="st3" width="1" height="42.1"/>
</g>
<g>
	<g>
		<rect x="386.2" y="160.9" class="st3" width="1" height="42.1"/>
	</g>
	<g>
		<rect x="372.7" y="160.9" class="st3" width="1" height="42.1"/>
	</g>
</g>
<g>
	<path class="st4" d="M319.7,62c-1.3,0-2.4-1.1-2.4-2.4V40.2c0-1.3,1.1-2.4,2.4-2.4s2.4,1.1,2.4,2.4v19.3
		C322.1,60.9,321,62,319.7,62"/>
	<path class="st4" d="M319.7,62c-0.5,0-1-0.1-1.4-0.5l-26.6-19.3c-1.1-0.8-1.3-2.3-0.5-3.4c0.8-1.1,2.3-1.3,3.4-0.5l26.6,19.3
		c1.1,0.8,1.3,2.3,0.5,3.4C321.2,61.7,320.4,62,319.7,62"/>
	<path class="st4" d="M319.7,62c-0.7,0-1.5-0.3-2-1c-0.8-1.1-0.5-2.6,0.5-3.4l26.6-19.3c1.1-0.8,2.6-0.5,3.4,0.5
		c0.8,1.1,0.5,2.6-0.5,3.4l-26.6,19.3C320.7,61.8,320.2,62,319.7,62"/>
</g>
<polygon class="st5" points="322,61.4 328.8,75.1 310.5,75.1 317.4,61.4 "/>
<path class="st5" d="M354,39.5L354,39.5c0,2.5-2.1,4.6-4.6,4.6h-59.5c-2.5,0-4.6-2.1-4.6-4.6s2.1-4.6,4.6-4.6h59.5
	C352,35,354,37,354,39.5"/>
<path class="st2" d="M357.6,208.7v-49.8c0-1.6,1.3-2.9,2.9-2.9h9.4c1.6,0,2.9,1.3,2.9,2.9v49.8c0,1.6-1.3,2.9-2.9,2.9h-9.4
	C358.9,211.5,357.6,210.3,357.6,208.7"/>
<path class="st2" d="M266.8,208.7v-49.8c0-1.6,1.3-2.9,2.9-2.9h9.4c1.6,0,2.9,1.3,2.9,2.9v49.8c0,1.6-1.3,2.9-2.9,2.9h-9.4
	C268.1,211.5,266.8,210.3,266.8,208.7"/>
<path class="st3" d="M345.3,209.3c-14.1,14.1-36.9,14.1-51,0s-14.1-36.9,0-51s36.9-14.1,51,0S359.3,195.2,345.3,209.3"/>
<g>
	<path class="st2" d="M301.2,169.9c1.6,0.9,2.2,2.9,1.3,4.5c-0.9,1.6-2.9,2.2-4.5,1.3s-2.2-2.9-1.3-4.5
		C297.6,169.6,299.6,169,301.2,169.9"/>
	<path class="st2" d="M332.4,160.8c1.6,0.9,2.2,2.9,1.3,4.5s-2.9,2.2-4.5,1.3s-2.2-2.9-1.3-4.5C328.8,160.5,330.8,159.9,332.4,160.8
		"/>
	<path class="st2" d="M310.3,201c1.6,0.9,2.2,2.9,1.3,4.5s-2.9,2.2-4.5,1.3s-2.2-2.9-1.3-4.5C306.7,200.8,308.7,200.2,310.3,201"/>
	<path class="st2" d="M341.5,191.9c1.6,0.9,2.2,2.9,1.3,4.5c-0.9,1.6-2.9,2.2-4.5,1.3s-2.2-2.9-1.3-4.5
		C337.9,191.7,339.9,191.1,341.5,191.9"/>
	<path class="st2" d="M296.8,187.1c1.7-0.5,3.6,0.5,4.1,2.2s-0.5,3.6-2.2,4.1s-3.6-0.5-4.1-2.2C294.1,189.4,295,187.6,296.8,187.1"
		/>
	<path class="st2" d="M312.4,158.6c1.7-0.5,3.6,0.5,4.1,2.2s-0.5,3.6-2.2,4.1s-3.6-0.5-4.1-2.2C309.7,160.9,310.6,159.1,312.4,158.6
		"/>
	<path class="st2" d="M325.3,202.7c1.7-0.5,3.6,0.5,4.1,2.2s-0.5,3.6-2.2,4.1s-3.6-0.5-4.1-2.2C322.5,205,323.5,203.2,325.3,202.7"
		/>
	<path class="st2" d="M340.9,174.2c1.7-0.5,3.6,0.5,4.1,2.2s-0.5,3.6-2.2,4.1s-3.6-0.5-4.1-2.2C338.1,176.5,339.1,174.7,340.9,174.2
		"/>
</g>
<g>
	<rect x="319.3" y="1.9" width="0.8" height="308.7"/>
</g>
<g>
	<rect x="272.5" y="156" class="st3" width="1" height="55.5"/>
</g>
<g>
	<rect x="366.1" y="156" class="st3" width="1" height="55.5"/>
</g>
<g>
	<path class="st6" d="M3,257.4H0c0-34.2,13.3-66.4,37.5-90.5c24.2-24.2,56.3-37.5,90.5-37.5h118.4c7.1-14.2,21.8-23.4,37.7-23.4
		h24.3v3h-24.3c-15.1,0-29,8.8-35.5,22.5l-0.4,0.9H128c-33.4,0-64.8,13-88.4,36.6S3,224,3,257.4z"/>
</g>
<g>
	<path class="st6" d="M319.7,261.6h-35.6c-17.4,0-33.1-10.8-39.4-27.1H128c-12.6,0-22.9,10.3-22.9,22.9h-3
		c0-14.3,11.6-25.9,25.9-25.9h118.8l0.4,1c5.6,15.6,20.4,26.1,36.9,26.1h35.6V261.6z"/>
</g>
<path class="st7" d="M608,257.4L608,257.4c0-53.3-43.2-96.5-96.5-96.5H372.7v-2c0-1.6-1.3-2.9-2.9-2.9H366v-7.8
	c0-5.9-4.8-10.7-10.7-10.7H331v-48h2.5c1.7,0,3-1.4,3-3v-8.3c0-1.7-1.4-3-3-3h-4.7L322,61.4h-2.2"/>
<path class="st7" d="M319.7,230.1h35.6c5.9,0,10.7-4.8,10.7-10.7v-7.8h3.8c1.6,0,2.9-1.3,2.9-2.9V203h138.7
	c30,0,54.4,24.4,54.4,54.4"/>
<g>
	<rect class="st8" width="216.61" height="26.1"/>
</g>
<g>
	<rect x="533.3" y="0" class="st8" width="75.5" height="26.1"/>
	<g>
		<path d="M553.9,9.2c2.1,0,3.4,1.1,3.4,2.9c0,2-1.2,3.1-3.4,3.1h-1.5v2.4h-2.1V9.2H553.9z M552.4,13.6h1.4c0.9,0,1.5-0.5,1.5-1.4
			s-0.5-1.3-1.5-1.3h-1.4V13.6z"/>
		<path d="M565,10.1l-0.8,1.7c-0.9-0.5-2-0.9-2.7-0.9c-0.6,0-0.9,0.2-0.9,0.6c0,1.5,4.4,0.6,4.4,3.7c0,1.7-1.5,2.6-3.4,2.6
			c-1.4,0-2.8-0.5-3.8-1.3l0.8-1.6c0.9,0.8,2.2,1.3,3,1.3c0.7,0,1.1-0.3,1.1-0.7c0-1.5-4.4-0.6-4.4-3.6c0-1.5,1.3-2.5,3.3-2.5
			C562.9,9.1,564.1,9.5,565,10.1z"/>
		<path d="M571.9,12.5l-1.5,0.9c-0.3-0.4-0.7-0.7-1.3-0.7c-0.8,0-1.4,0.7-1.4,1.6c0,1,0.6,1.6,1.4,1.6c0.6,0,1-0.2,1.3-0.7l1.5,0.9
			c-0.5,0.9-1.6,1.5-2.9,1.5c-2,0-3.3-1.3-3.3-3.3s1.4-3.3,3.4-3.3C570.3,11.1,571.3,11.6,571.9,12.5z"/>
		<path d="M579.3,14.4c0,2-1.4,3.3-3.5,3.3s-3.5-1.3-3.5-3.3s1.4-3.3,3.5-3.3C577.8,11.1,579.3,12.4,579.3,14.4z M574.3,14.4
			c0,1,0.6,1.7,1.5,1.7s1.4-0.7,1.4-1.7s-0.6-1.7-1.4-1.7C574.9,12.7,574.3,13.4,574.3,14.4z"/>
		<path d="M586.1,13.4v4.2h-2v-0.7c-0.4,0.6-1.1,0.8-2,0.8c-1.4,0-2.2-0.8-2.2-2s0.9-1.9,2.5-2h1.7v-0.1c0-0.6-0.4-1-1.3-1
			c-0.5,0-1.2,0.2-1.9,0.5l-0.6-1.4c1-0.5,1.9-0.7,3-0.7C585.1,11.1,586.1,11.9,586.1,13.4z M584.1,15.4v-0.6h-1.3
			c-0.6,0-0.9,0.2-0.9,0.7s0.3,0.8,0.9,0.8S583.9,16,584.1,15.4z"/>
		<path d="M591.7,17.3c-0.5,0.3-1.1,0.4-1.7,0.4c-1.2,0-2.1-0.7-2.1-2.1v-2.9H587v-1.4h0.9V9.7h2.1v1.8h1.7v1.4H590v2.5
			c0,0.5,0.2,0.7,0.6,0.7c0.2,0,0.5-0.1,0.8-0.2L591.7,17.3z"/>
	</g>
</g>
<path class="st9" d="M485.4,178.1c0,0.7,0.5,1.2,1.2,1.2h5c0.2,0,0.4,0,0.4-0.1c0.3-0.1,0.5-0.4,0.7-0.7c0.1-0.2,0.1-0.4,0.1-0.4v-5
	c0-0.7-0.5-1.2-1.2-1.2s-1.2,0.5-1.2,1.2v2l-10.7-10.7c-0.3-0.3-0.5-0.4-0.9-0.4s-0.6,0.1-0.9,0.4l-12.8,12.8
	c-0.5,0.5-0.5,1.2,0,1.8s1.2,0.5,1.8,0l11.9-11.9l9.8,9.8h-2C485.9,176.9,485.4,177.5,485.4,178.1z"/>
<path class="st9" d="M524.6,178.1c0,0.7,0.5,1.2,1.2,1.2h5c0.2,0,0.4,0,0.4-0.1c0.3-0.1,0.5-0.4,0.7-0.7c0.1-0.2,0.1-0.4,0.1-0.4v-5
	c0-0.7-0.5-1.2-1.2-1.2s-1.2,0.5-1.2,1.2v2l-10.7-10.7c-0.3-0.3-0.5-0.4-0.9-0.4s-0.6,0.1-0.9,0.4l-12.8,12.8
	c-0.5,0.5-0.5,1.2,0,1.8s1.2,0.5,1.8,0l11.9-11.9l9.8,9.8h-2C525.2,176.9,524.6,177.5,524.6,178.1z"/>
<path class="st9" d="M446.1,178.1c0,0.7,0.5,1.2,1.2,1.2h5c0.2,0,0.4,0,0.4-0.1c0.3-0.1,0.5-0.4,0.7-0.7c0.1-0.2,0.1-0.4,0.1-0.4v-5
	c0-0.7-0.5-1.2-1.2-1.2s-1.2,0.5-1.2,1.2v2l-10.7-10.7c-0.3-0.3-0.5-0.4-0.9-0.4s-0.6,0.1-0.9,0.4l-12.8,12.8
	c-0.5,0.5-0.5,1.2,0,1.8s1.2,0.5,1.8,0l11.9-11.9l9.8,9.8h-2C446.7,176.9,446.1,177.5,446.1,178.1z"/>
<path class="st10" d="M486.6,145.6h2l-9.8,9.8L467,143.5c-0.6-0.5-1.3-0.6-1.8,0s-0.5,1.3,0,1.8l12.8,12.8c0.3,0.3,0.5,0.4,0.9,0.4
	s0.6-0.1,0.9-0.4l10.7-10.7v2c0,0.7,0.5,1.2,1.2,1.2s1.2-0.5,1.2-1.2v-5c0,0,0-0.2-0.1-0.4c-0.2-0.3-0.4-0.6-0.7-0.7
	c0-0.1-0.2-0.1-0.4-0.1h-5c-0.7,0-1.2,0.5-1.2,1.2C485.5,145,486,145.6,486.6,145.6z"/>
<path class="st10" d="M525.8,145.6h2l-9.8,9.8l-11.9-11.9c-0.6-0.5-1.3-0.6-1.8,0s-0.5,1.3,0,1.8l12.8,12.8c0.3,0.3,0.5,0.4,0.9,0.4
	s0.6-0.1,0.9-0.4l10.7-10.7v2c0,0.7,0.5,1.2,1.2,1.2s1.2-0.5,1.2-1.2v-5c0,0,0-0.2-0.1-0.4c-0.2-0.3-0.4-0.6-0.7-0.7
	c0-0.1-0.2-0.1-0.4-0.1h-5c-0.7,0-1.2,0.5-1.2,1.2C524.6,145,525.2,145.6,525.8,145.6z"/>
<path class="st10" d="M447.3,145.6h2l-9.8,9.8l-11.9-11.9c-0.6-0.5-1.3-0.6-1.8,0s-0.5,1.3,0,1.8l12.8,12.8c0.3,0.3,0.5,0.4,0.9,0.4
	s0.6-0.1,0.9-0.4l10.7-10.7v2c0,0.7,0.5,1.2,1.2,1.2s1.2-0.5,1.2-1.2v-5c0,0,0-0.2-0.1-0.4c-0.2-0.3-0.4-0.6-0.7-0.7
	c0-0.1-0.2-0.1-0.4-0.1h-5c-0.7,0-1.2,0.5-1.2,1.2C446.2,145,446.8,145.6,447.3,145.6z"/>
<path class="st9" d="M161,145.6c-0.2-0.1-0.4,0-0.4,0l-5,0.7c-0.7,0.1-1.1,0.7-1.1,1.4c0.1,0.7,0.7,1.1,1.4,1.1l2-0.3l-8.2,10.8
	l-1,1.3l-9.9,13.1c-0.4,0.5-0.3,1.3,0.2,1.7l0,0c0.5,0.4,1.3,0.3,1.7-0.2l9.2-12.1l1.5-2l0.2-0.3l4.8-6.3l3.4-4.4l0.3,2
	c0.1,0.7,0.8,1.1,1.4,1.1c0.7-0.1,1.1-0.7,1.1-1.4l-0.7-5c0-0.2,0-0.3-0.1-0.4C161.7,145.9,161.4,145.7,161,145.6z"/>
<path class="st9" d="M185,145.6c-0.2-0.1-0.4,0-0.4,0l-5,0.7c-0.7,0.1-1.1,0.7-1.1,1.4c0.1,0.7,0.7,1.1,1.4,1.1l2-0.3l-8.2,10.8
	l-1,1.3l-9.9,13.1c-0.4,0.5-0.3,1.3,0.2,1.7l0,0c0.5,0.4,1.3,0.3,1.7-0.2l9.2-12.1l1.5-2l0.2-0.3l4.8-6.3l3.4-4.4l0.3,2
	c0.1,0.7,0.8,1.1,1.4,1.1c0.7-0.1,1.1-0.7,1.1-1.4l-0.7-5c0-0.2,0-0.3-0.1-0.4C185.7,145.9,185.4,145.7,185,145.6z"/>
<path class="st9" d="M209,145.6c-0.2-0.1-0.4,0-0.4,0l-5,0.7c-0.7,0.1-1.1,0.7-1.1,1.4c0.1,0.7,0.7,1.1,1.4,1.1l2-0.3l-8.2,10.8
	l-1,1.3l-9.9,13.1c-0.4,0.5-0.3,1.3,0.2,1.7l0,0c0.5,0.4,1.3,0.3,1.7-0.2l9.2-12.1l1.5-2l0.2-0.3l4.8-6.3l3.4-4.4l0.3,2
	c0.1,0.7,0.8,1.1,1.4,1.1c0.7-0.1,1.1-0.7,1.1-1.4l-0.7-5c0-0.2,0-0.3-0.1-0.4C209.7,145.9,209.4,145.7,209,145.6z"/>
<path class="st9" d="M233.1,145.6c-0.2-0.1-0.4,0-0.4,0l-5,0.7c-0.7,0.1-1.1,0.7-1.1,1.4c0.1,0.7,0.7,1.1,1.4,1.1l2-0.3l-8.2,10.8
	l-1,1.3l-9.9,13.1c-0.4,0.5-0.3,1.3,0.2,1.7l0,0c0.5,0.4,1.3,0.3,1.7-0.2l9.2-12.1l1.5-2l0.2-0.3l4.8-6.3l3.4-4.4l0.3,2
	c0.1,0.7,0.8,1.1,1.4,1.1c0.7-0.1,1.1-0.7,1.1-1.4l-0.7-5c0-0.2,0-0.3-0.1-0.4C233.7,145.9,233.5,145.7,233.1,145.6z"/>
<g>
	<path d="M17.94,11.35c0.36-0.65,0.86-1.16,1.51-1.52c0.64-0.36,1.37-0.55,2.19-0.55c1,0,1.86,0.26,2.57,0.79
		c0.71,0.53,1.19,1.25,1.43,2.16h-2.26c-0.17-0.35-0.41-0.62-0.71-0.8c-0.31-0.18-0.66-0.28-1.05-0.28c-0.63,0-1.14,0.22-1.54,0.66
		c-0.39,0.44-0.59,1.03-0.59,1.76c0,0.74,0.2,1.32,0.59,1.76c0.39,0.44,0.9,0.66,1.54,0.66c0.39,0,0.74-0.09,1.05-0.28
		c0.31-0.18,0.55-0.45,0.71-0.8h2.26c-0.24,0.91-0.72,1.63-1.43,2.15c-0.71,0.52-1.57,0.79-2.57,0.79c-0.82,0-1.55-0.18-2.19-0.55
		c-0.64-0.36-1.15-0.87-1.51-1.52c-0.36-0.65-0.54-1.39-0.54-2.22S17.58,12,17.94,11.35z"/>
	<path d="M28.17,17.48c-0.52-0.28-0.94-0.68-1.24-1.2c-0.3-0.52-0.45-1.13-0.45-1.82c0-0.69,0.15-1.29,0.46-1.82
		c0.3-0.52,0.72-0.93,1.25-1.21c0.53-0.28,1.12-0.42,1.78-0.42s1.25,0.14,1.78,0.42c0.53,0.28,0.94,0.68,1.25,1.21
		s0.46,1.13,0.46,1.82c0,0.69-0.15,1.29-0.46,1.82c-0.31,0.52-0.73,0.93-1.26,1.21c-0.53,0.28-1.13,0.42-1.78,0.42
		C29.28,17.9,28.69,17.76,28.17,17.48z M30.94,15.69c0.28-0.29,0.41-0.7,0.41-1.24c0-0.54-0.13-0.95-0.4-1.24
		c-0.27-0.29-0.6-0.43-0.99-0.43c-0.4,0-0.73,0.14-1,0.43c-0.26,0.28-0.4,0.7-0.4,1.24c0,0.54,0.13,0.95,0.39,1.24
		c0.26,0.29,0.59,0.43,0.98,0.43S30.66,15.98,30.94,15.69z"/>
	<path d="M45.06,11.79c0.49,0.5,0.74,1.2,0.74,2.1v3.91h-2.04v-3.64c0-0.43-0.11-0.77-0.34-1c-0.23-0.24-0.54-0.35-0.94-0.35
		s-0.71,0.12-0.94,0.35c-0.23,0.24-0.34,0.57-0.34,1v3.64h-2.04v-3.64c0-0.43-0.11-0.77-0.34-1c-0.23-0.24-0.54-0.35-0.94-0.35
		c-0.4,0-0.71,0.12-0.94,0.35c-0.23,0.24-0.34,0.57-0.34,1v3.64h-2.05v-6.7h2.05v0.84c0.21-0.28,0.48-0.5,0.82-0.67
		c0.34-0.16,0.72-0.25,1.14-0.25c0.5,0,0.95,0.11,1.35,0.32c0.4,0.22,0.71,0.52,0.93,0.92c0.23-0.37,0.55-0.67,0.95-0.9
		s0.84-0.35,1.31-0.35C43.91,11.03,44.57,11.28,45.06,11.79z"/>
	<path d="M57.77,11.79c0.49,0.5,0.74,1.2,0.74,2.1v3.91h-2.04v-3.64c0-0.43-0.11-0.77-0.34-1c-0.23-0.24-0.54-0.35-0.94-0.35
		s-0.71,0.12-0.94,0.35c-0.23,0.24-0.34,0.57-0.34,1v3.64h-2.04v-3.64c0-0.43-0.11-0.77-0.34-1c-0.23-0.24-0.54-0.35-0.94-0.35
		c-0.4,0-0.71,0.12-0.94,0.35c-0.23,0.24-0.34,0.57-0.34,1v3.64h-2.05v-6.7h2.05v0.84c0.21-0.28,0.48-0.5,0.82-0.67
		c0.34-0.16,0.72-0.25,1.14-0.25c0.5,0,0.95,0.11,1.35,0.32c0.4,0.22,0.71,0.52,0.93,0.92c0.23-0.37,0.55-0.67,0.95-0.9
		s0.84-0.35,1.31-0.35C56.62,11.03,57.28,11.28,57.77,11.79z"/>
	<path d="M61.23,17.48c-0.52-0.28-0.94-0.68-1.24-1.2c-0.3-0.52-0.45-1.13-0.45-1.82c0-0.69,0.15-1.29,0.46-1.82
		c0.3-0.52,0.72-0.93,1.25-1.21c0.53-0.28,1.12-0.42,1.78-0.42s1.25,0.14,1.78,0.42c0.53,0.28,0.94,0.68,1.25,1.21
		s0.46,1.13,0.46,1.82c0,0.69-0.15,1.29-0.46,1.82c-0.31,0.52-0.73,0.93-1.26,1.21c-0.53,0.28-1.13,0.42-1.78,0.42
		C62.34,17.9,61.75,17.76,61.23,17.48z M64,15.69c0.28-0.29,0.41-0.7,0.41-1.24c0-0.54-0.13-0.95-0.4-1.24
		c-0.27-0.29-0.6-0.43-0.99-0.43c-0.4,0-0.73,0.14-1,0.43c-0.26,0.28-0.4,0.7-0.4,1.24c0,0.54,0.13,0.95,0.39,1.24
		c0.26,0.29,0.59,0.43,0.98,0.43S63.72,15.98,64,15.69z"/>
	<path d="M73.55,11.79c0.47,0.51,0.7,1.21,0.7,2.09v3.91h-2.04v-3.64c0-0.45-0.12-0.8-0.35-1.04c-0.23-0.25-0.54-0.37-0.94-0.37
		c-0.39,0-0.7,0.12-0.94,0.37c-0.23,0.25-0.35,0.6-0.35,1.04v3.64h-2.05v-6.7h2.05v0.89c0.21-0.3,0.49-0.53,0.84-0.7
		c0.35-0.17,0.75-0.26,1.19-0.26C72.46,11.03,73.08,11.29,73.55,11.79z"/>
	<path d="M78.37,10.09c-0.23-0.21-0.34-0.47-0.34-0.79c0-0.32,0.11-0.59,0.34-0.8s0.52-0.32,0.88-0.32c0.35,0,0.64,0.11,0.87,0.32
		s0.34,0.48,0.34,0.8c0,0.31-0.11,0.57-0.34,0.79s-0.52,0.32-0.87,0.32C78.9,10.41,78.6,10.3,78.37,10.09z M80.28,11.1v6.7h-2.05
		v-6.7H80.28z"/>
	<path d="M87.72,11.79c0.47,0.51,0.7,1.21,0.7,2.09v3.91h-2.04v-3.64c0-0.45-0.12-0.8-0.35-1.04c-0.23-0.25-0.54-0.37-0.94-0.37
		c-0.39,0-0.7,0.12-0.94,0.37c-0.23,0.25-0.35,0.6-0.35,1.04v3.64h-2.05v-6.7h2.05v0.89c0.21-0.3,0.49-0.53,0.84-0.7
		c0.35-0.17,0.75-0.26,1.19-0.26C86.63,11.03,87.25,11.29,87.72,11.79z"/>
	<path d="M91.02,17.6c-0.46-0.2-0.82-0.47-1.08-0.82c-0.26-0.35-0.41-0.74-0.44-1.17h2.03c0.02,0.23,0.13,0.42,0.32,0.56
		c0.19,0.14,0.43,0.22,0.71,0.22c0.26,0,0.45-0.05,0.59-0.15c0.14-0.1,0.21-0.23,0.21-0.39c0-0.19-0.1-0.33-0.3-0.43
		c-0.2-0.09-0.52-0.19-0.97-0.31c-0.48-0.11-0.88-0.23-1.2-0.35s-0.6-0.32-0.83-0.59c-0.23-0.27-0.35-0.63-0.35-1.09
		c0-0.38,0.11-0.73,0.32-1.05c0.21-0.32,0.52-0.57,0.94-0.75c0.41-0.18,0.9-0.28,1.47-0.28c0.84,0,1.5,0.21,1.99,0.62
		c0.48,0.42,0.76,0.97,0.83,1.66h-1.9c-0.03-0.23-0.13-0.42-0.31-0.55c-0.17-0.14-0.4-0.2-0.68-0.2c-0.24,0-0.42,0.05-0.55,0.14
		s-0.19,0.22-0.19,0.38c0,0.19,0.1,0.34,0.31,0.43c0.2,0.1,0.52,0.19,0.95,0.29c0.5,0.13,0.9,0.25,1.21,0.38s0.59,0.32,0.82,0.6
		c0.24,0.28,0.36,0.65,0.37,1.11c0,0.39-0.11,0.74-0.33,1.05c-0.22,0.31-0.54,0.55-0.95,0.73s-0.89,0.26-1.43,0.26
		C91.99,17.9,91.47,17.8,91.02,17.6z"/>
	<path d="M103.16,11.1v6.7h-2.05v-0.91c-0.21,0.3-0.49,0.53-0.85,0.71c-0.36,0.18-0.75,0.27-1.18,0.27c-0.51,0-0.96-0.11-1.36-0.34
		s-0.7-0.56-0.91-0.99c-0.22-0.43-0.32-0.94-0.32-1.52V11.1h2.04v3.64c0,0.45,0.12,0.8,0.35,1.04c0.23,0.25,0.54,0.37,0.94,0.37
		c0.4,0,0.72-0.12,0.95-0.37c0.23-0.25,0.35-0.6,0.35-1.04V11.1H103.16z"/>
	<path d="M106.69,8.92v8.88h-2.05V8.92H106.69z"/>
	<path d="M108.16,12.63c0.26-0.52,0.61-0.92,1.06-1.2c0.45-0.28,0.95-0.42,1.5-0.42c0.47,0,0.89,0.1,1.24,0.29s0.63,0.44,0.82,0.76
		V11.1h2.05v6.7h-2.05v-0.95c-0.2,0.31-0.48,0.56-0.83,0.76s-0.77,0.29-1.24,0.29c-0.54,0-1.04-0.14-1.49-0.43
		c-0.45-0.28-0.8-0.69-1.06-1.21c-0.26-0.52-0.39-1.13-0.39-1.82S107.9,13.15,108.16,12.63z M112.36,13.24
		c-0.28-0.3-0.63-0.44-1.04-0.44c-0.41,0-0.75,0.15-1.04,0.44c-0.28,0.29-0.43,0.69-0.43,1.21c0,0.51,0.14,0.92,0.43,1.22
		c0.28,0.3,0.63,0.45,1.04,0.45c0.41,0,0.75-0.15,1.04-0.44c0.28-0.3,0.43-0.7,0.43-1.21C112.78,13.94,112.64,13.54,112.36,13.24z"
		/>
	<path d="M120.06,16.06v1.74h-1.04c-0.74,0-1.32-0.18-1.74-0.55s-0.62-0.96-0.62-1.78v-2.66h-0.82v-1.7h0.82V9.47h2.05v1.63h1.34
		v1.7h-1.34v2.69c0,0.2,0.05,0.34,0.14,0.43c0.1,0.09,0.26,0.13,0.48,0.13H120.06z"/>
	<path d="M121.34,10.09C121.12,9.88,121,9.62,121,9.3c0-0.32,0.11-0.59,0.34-0.8s0.52-0.32,0.88-0.32c0.35,0,0.64,0.11,0.87,0.32
		s0.34,0.48,0.34,0.8c0,0.31-0.11,0.57-0.34,0.79s-0.52,0.32-0.87,0.32C121.87,10.41,121.57,10.3,121.34,10.09z M123.25,11.1v6.7
		h-2.05v-6.7H123.25z"/>
	<path d="M130.69,11.79c0.47,0.51,0.7,1.21,0.7,2.09v3.91h-2.04v-3.64c0-0.45-0.12-0.8-0.35-1.04c-0.23-0.25-0.54-0.37-0.94-0.37
		c-0.39,0-0.7,0.12-0.94,0.37c-0.23,0.25-0.35,0.6-0.35,1.04v3.64h-2.05v-6.7h2.05v0.89c0.21-0.3,0.49-0.53,0.84-0.7
		c0.35-0.17,0.75-0.26,1.19-0.26C129.6,11.03,130.22,11.29,130.69,11.79z"/>
	<path d="M136.61,11.3c0.36,0.19,0.63,0.44,0.82,0.76V11.1h2.05v6.68c0,0.62-0.12,1.17-0.37,1.67c-0.24,0.5-0.62,0.9-1.12,1.19
		s-1.12,0.44-1.87,0.44c-0.99,0-1.8-0.23-2.41-0.7c-0.62-0.47-0.97-1.1-1.06-1.9h2.03c0.06,0.26,0.22,0.46,0.46,0.61
		c0.24,0.15,0.54,0.22,0.89,0.22c0.42,0,0.76-0.12,1.01-0.37c0.25-0.24,0.38-0.63,0.38-1.17v-0.95c-0.2,0.31-0.48,0.57-0.83,0.76
		c-0.35,0.2-0.76,0.29-1.24,0.29c-0.55,0-1.05-0.14-1.5-0.43c-0.45-0.28-0.8-0.69-1.06-1.21c-0.26-0.52-0.39-1.13-0.39-1.82
		s0.13-1.29,0.39-1.81c0.26-0.52,0.61-0.92,1.06-1.2c0.45-0.28,0.95-0.42,1.5-0.42C135.84,11.01,136.25,11.1,136.61,11.3z
		 M137,13.24c-0.28-0.3-0.63-0.44-1.04-0.44c-0.41,0-0.75,0.15-1.04,0.44c-0.28,0.29-0.43,0.69-0.43,1.21
		c0,0.51,0.14,0.92,0.43,1.22c0.28,0.3,0.63,0.45,1.04,0.45c0.41,0,0.75-0.15,1.04-0.44c0.28-0.3,0.43-0.7,0.43-1.21
		C137.43,13.94,137.29,13.54,137,13.24z"/>
	<path d="M154.04,11.79c0.49,0.5,0.74,1.2,0.74,2.1v3.91h-2.04v-3.64c0-0.43-0.11-0.77-0.34-1c-0.23-0.24-0.54-0.35-0.94-0.35
		s-0.71,0.12-0.94,0.35c-0.23,0.24-0.34,0.57-0.34,1v3.64h-2.04v-3.64c0-0.43-0.11-0.77-0.34-1c-0.23-0.24-0.54-0.35-0.94-0.35
		c-0.4,0-0.71,0.12-0.94,0.35c-0.23,0.24-0.34,0.57-0.34,1v3.64h-2.05v-6.7h2.05v0.84c0.21-0.28,0.48-0.5,0.82-0.67
		c0.34-0.16,0.72-0.25,1.14-0.25c0.5,0,0.95,0.11,1.35,0.32c0.4,0.22,0.71,0.52,0.93,0.92c0.23-0.37,0.55-0.67,0.95-0.9
		s0.84-0.35,1.31-0.35C152.89,11.03,153.55,11.28,154.04,11.79z"/>
	<path d="M156.2,12.63c0.26-0.52,0.61-0.92,1.06-1.2c0.45-0.28,0.95-0.42,1.5-0.42c0.47,0,0.89,0.1,1.24,0.29s0.63,0.44,0.82,0.76
		V11.1h2.05v6.7h-2.05v-0.95c-0.2,0.31-0.48,0.56-0.83,0.76s-0.77,0.29-1.24,0.29c-0.54,0-1.04-0.14-1.49-0.43
		c-0.45-0.28-0.8-0.69-1.06-1.21c-0.26-0.52-0.39-1.13-0.39-1.82S155.94,13.15,156.2,12.63z M160.4,13.24
		c-0.28-0.3-0.63-0.44-1.04-0.44c-0.41,0-0.75,0.15-1.04,0.44c-0.28,0.29-0.43,0.69-0.43,1.21c0,0.51,0.14,0.92,0.43,1.22
		c0.28,0.3,0.63,0.45,1.04,0.45c0.41,0,0.75-0.15,1.04-0.44c0.28-0.3,0.43-0.7,0.43-1.21C160.83,13.94,160.69,13.54,160.4,13.24z"/>
	<path d="M168.1,16.06v1.74h-1.04c-0.74,0-1.32-0.18-1.74-0.55s-0.62-0.96-0.62-1.78v-2.66h-0.82v-1.7h0.82V9.47h2.05v1.63h1.34v1.7
		h-1.34v2.69c0,0.2,0.05,0.34,0.14,0.43c0.1,0.09,0.26,0.13,0.48,0.13H168.1z"/>
	<path d="M175.52,14.94h-4.64c0.03,0.42,0.17,0.73,0.4,0.95c0.24,0.22,0.53,0.33,0.87,0.33c0.51,0,0.87-0.22,1.07-0.65h2.18
		c-0.11,0.44-0.31,0.84-0.61,1.19c-0.29,0.35-0.66,0.63-1.1,0.83c-0.44,0.2-0.93,0.3-1.48,0.3c-0.66,0-1.24-0.14-1.75-0.42
		c-0.51-0.28-0.91-0.68-1.2-1.2c-0.29-0.52-0.43-1.13-0.43-1.82c0-0.7,0.14-1.3,0.43-1.82c0.28-0.52,0.68-0.92,1.19-1.2
		c0.51-0.28,1.1-0.42,1.76-0.42c0.65,0,1.22,0.14,1.73,0.41c0.5,0.27,0.9,0.66,1.18,1.16c0.28,0.5,0.43,1.09,0.43,1.76
		C175.55,14.54,175.54,14.74,175.52,14.94z M173.45,13.8c0-0.35-0.12-0.63-0.36-0.84c-0.24-0.21-0.54-0.31-0.9-0.31
		c-0.34,0-0.63,0.1-0.87,0.3c-0.24,0.2-0.38,0.48-0.44,0.85H173.45z"/>
	<path d="M179.59,11.35c0.36-0.21,0.76-0.32,1.2-0.32v2.17h-0.56c-0.51,0-0.9,0.11-1.15,0.33c-0.26,0.22-0.38,0.61-0.38,1.16v3.11
		h-2.05v-6.7h2.05v1.12C178.93,11.85,179.23,11.56,179.59,11.35z"/>
	<path d="M181.92,10.09c-0.23-0.21-0.34-0.47-0.34-0.79c0-0.32,0.11-0.59,0.34-0.8s0.52-0.32,0.88-0.32c0.35,0,0.64,0.11,0.87,0.32
		s0.34,0.48,0.34,0.8c0,0.31-0.11,0.57-0.34,0.79s-0.52,0.32-0.87,0.32C182.44,10.41,182.15,10.3,181.92,10.09z M183.82,11.1v6.7
		h-2.05v-6.7H183.82z"/>
	<path d="M185.29,12.63c0.26-0.52,0.61-0.92,1.06-1.2c0.45-0.28,0.95-0.42,1.5-0.42c0.47,0,0.89,0.1,1.24,0.29s0.63,0.44,0.82,0.76
		V11.1h2.05v6.7h-2.05v-0.95c-0.2,0.31-0.48,0.56-0.83,0.76s-0.77,0.29-1.24,0.29c-0.54,0-1.04-0.14-1.49-0.43
		c-0.45-0.28-0.8-0.69-1.06-1.21c-0.26-0.52-0.39-1.13-0.39-1.82S185.03,13.15,185.29,12.63z M189.49,13.24
		c-0.28-0.3-0.63-0.44-1.04-0.44c-0.41,0-0.75,0.15-1.04,0.44c-0.28,0.29-0.43,0.69-0.43,1.21c0,0.51,0.14,0.92,0.43,1.22
		c0.28,0.3,0.63,0.45,1.04,0.45c0.41,0,0.75-0.15,1.04-0.44c0.28-0.3,0.43-0.7,0.43-1.21C189.92,13.94,189.78,13.54,189.49,13.24z"
		/>
	<path d="M195.51,8.92v8.88h-2.05V8.92H195.51z"/>
	<path d="M198.16,17.6c-0.46-0.2-0.82-0.47-1.08-0.82c-0.26-0.35-0.41-0.74-0.44-1.17h2.03c0.02,0.23,0.13,0.42,0.32,0.56
		c0.19,0.14,0.43,0.22,0.71,0.22c0.26,0,0.45-0.05,0.59-0.15c0.14-0.1,0.21-0.23,0.21-0.39c0-0.19-0.1-0.33-0.3-0.43
		c-0.2-0.09-0.52-0.19-0.97-0.31c-0.48-0.11-0.88-0.23-1.2-0.35s-0.6-0.32-0.83-0.59c-0.23-0.27-0.35-0.63-0.35-1.09
		c0-0.38,0.11-0.73,0.32-1.05c0.21-0.32,0.52-0.57,0.94-0.75c0.41-0.18,0.9-0.28,1.47-0.28c0.84,0,1.5,0.21,1.99,0.62
		c0.48,0.42,0.76,0.97,0.83,1.66h-1.9c-0.03-0.23-0.13-0.42-0.31-0.55c-0.17-0.14-0.4-0.2-0.68-0.2c-0.24,0-0.42,0.05-0.55,0.14
		s-0.19,0.22-0.19,0.38c0,0.19,0.1,0.34,0.31,0.43c0.2,0.1,0.52,0.19,0.95,0.29c0.5,0.13,0.9,0.25,1.21,0.38s0.59,0.32,0.82,0.6
		c0.24,0.28,0.36,0.65,0.37,1.11c0,0.39-0.11,0.74-0.33,1.05c-0.22,0.31-0.54,0.55-0.95,0.73s-0.89,0.26-1.43,0.26
		C199.14,17.9,198.62,17.8,198.16,17.6z"/>
</g>
</svg>
