<svg xmlns="http://www.w3.org/2000/svg" xmlns:xlink="http://www.w3.org/1999/xlink" width="76.876" height="77.378" viewBox="0 0 76.876 77.378">
  <defs>
    <clipPath id="clip-path">
      <rect id="Rectangle_73" data-name="Rectangle 73" width="76.876" height="77.378" transform="translate(0 0)" fill="none" stroke="#fff" stroke-width="1"/>
    </clipPath>
  </defs>
  <g id="Group_24" data-name="Group 24" transform="translate(0 0)">
    <g id="Group_23" data-name="Group 23" clip-path="url(#clip-path)">
      <path id="Path_55" data-name="Path 55" d="M38.438,3c.7,0,2.309,1.907,2.911,3.112a16.932,16.932,0,0,1,1,3.614l.4,20.134,6.826,4.161a13.745,13.745,0,0,1,0-3.715,4.929,4.929,0,0,1,2.049-.446,4.831,4.831,0,0,1,2.067.446,17.571,17.571,0,0,1-1.1,5.522l20.58,12.549.7-.9v4.518l-30.92-9.148s-.1,5.232-.2,10.352A75.024,75.024,0,0,1,41.45,64.339l9.135,6.425.6-.8v4.418L39.944,71.165a15.627,15.627,0,0,1-1.506,3.213,15.627,15.627,0,0,1-1.506-3.213L25.688,74.378V69.96l.6.8,9.135-6.425a75.024,75.024,0,0,1-1.305-11.144c-.1-5.12-.2-10.352-.2-10.352L3,51.991V47.473l.7.9,20.58-12.549a17.571,17.571,0,0,1-1.1-5.522,4.825,4.825,0,0,1,2.067-.446,4.929,4.929,0,0,1,2.049.446,13.745,13.745,0,0,1,0,3.715l6.826-4.161.4-20.134a16.932,16.932,0,0,1,1-3.614C36.129,4.907,37.735,3,38.438,3m0-3c-3.173,0-5.571,4.723-5.6,4.771a18.789,18.789,0,0,0-1.279,4.462,2.993,2.993,0,0,0-.041.433l-.368,18.489-1.213.739a3,3,0,0,0-1.406-1.319,7.908,7.908,0,0,0-3.29-.715,7.8,7.8,0,0,0-3.465.792,3,3,0,0,0-1.6,2.524,15.666,15.666,0,0,0,.554,4.3l-16.7,10.18A3,3,0,0,0,0,47.473v4.518a3,3,0,0,0,3.851,2.876L31,46.836l.125,6.418a71.73,71.73,0,0,0,1.012,9.732l-5.763,4.053a3,3,0,0,0-3.683,2.921v4.418a3,3,0,0,0,3.825,2.884l8.7-2.487a13.769,13.769,0,0,0,.724,1.267,3,3,0,0,0,4.992,0,13.611,13.611,0,0,0,.724-1.267l8.7,2.487a3,3,0,0,0,3.825-2.884V69.96a3,3,0,0,0-3.683-2.921l-5.763-4.053a71.73,71.73,0,0,0,1.012-9.732l.125-6.418,27.146,8.031a3,3,0,0,0,3.851-2.876V47.473a3,3,0,0,0-4.038-2.815l-16.7-10.18a15.666,15.666,0,0,0,.554-4.3,3,3,0,0,0-1.6-2.525,7.816,7.816,0,0,0-3.464-.791,7.908,7.908,0,0,0-3.29.715,3,3,0,0,0-1.406,1.319l-1.213-.739L45.353,9.666a2.994,2.994,0,0,0-.041-.433A18.806,18.806,0,0,0,44.033,4.77C44.009,4.723,41.611,0,38.438,0" fill="none" stroke="#fff" stroke-width="1"/>
    </g>
  </g>
</svg>
