<svg xmlns="http://www.w3.org/2000/svg" xmlns:xlink="http://www.w3.org/1999/xlink" width="64.324" height="64.324" viewBox="0 0 64.324 64.324">
  <defs>
    <clipPath id="clip-path">
      <rect id="Rectangle_107" data-name="Rectangle 107" width="64.324" height="64.324" fill="none" stroke="#fff" stroke-width="1"/>
    </clipPath>
  </defs>
  <g id="Group_60" data-name="Group 60" transform="translate(0 0)">
    <g id="Group_59" data-name="Group 59" transform="translate(0 0)" clip-path="url(#clip-path)">
      <path id="Path_95" data-name="Path 95" d="M64.323,32.965a1.391,1.391,0,0,0-.856-1.284l-11.13-3.96V5.458a1.418,1.418,0,0,0-1.392-1.391H46.877V1.391a1.391,1.391,0,1,0-2.782,0V4.067H37.353V1.391a1.392,1.392,0,0,0-2.784,0V4.067H27.827V1.391a1.392,1.392,0,0,0-2.784,0V4.067H18.837V1.391a1.391,1.391,0,1,0-2.783,0V4.067H13.486a1.416,1.416,0,0,0-1.391,1.391V28.577L.856,33.072A1.291,1.291,0,0,0,0,34.356v6.957a.393.393,0,0,0,.107.321c.107.107-.75-1.284,12.093,22.048a1.232,1.232,0,0,0,1.178.642h37.46a1.227,1.227,0,0,0,1.176-.642c12.416-22.369,12.2-21.941,12.2-22.048s.106-.321.106-.428ZM14.876,12.2H30.931v8.99L14.876,27.613Zm18.731,8.883V12.2H49.661V26.864ZM14.876,6.85H49.661V9.526H14.876ZM32.214,23.439,61.647,33.928v5.351C31.573,28.684,32.75,29,32.323,28.9a.8.8,0,0,0-.535.107l-29,10.275V35.212ZM53.193,56.19H33.607V32.108l27.505,9.74Zm-41.955,0L3.318,41.848l14.128-5.03v6.315a3.922,3.922,0,0,0-2.676,3.746,4.067,4.067,0,1,0,8.133,0,3.922,3.922,0,0,0-2.676-3.746V35.854L30.931,32V56.083Zm7.6-10.6a1.391,1.391,0,1,1-1.391,1.391,1.416,1.416,0,0,1,1.391-1.391M50.2,61.648H14.235l-1.5-2.783H51.694Z" transform="translate(0 0)" fill="none" stroke="#fff" stroke-width="1"/>
    </g>
  </g>
</svg>
