<svg id="Group_41" data-name="Group 41" xmlns="http://www.w3.org/2000/svg" xmlns:xlink="http://www.w3.org/1999/xlink" width="74.82" height="80.832" viewBox="0 0 74.82 80.832">
  <defs>
    <clipPath id="clip-path">
      <rect id="Rectangle_97" data-name="Rectangle 97" width="74.82" height="80.832" fill="#fff"/>
    </clipPath>
  </defs>
  <g id="Group_40" data-name="Group 40" clip-path="url(#clip-path)">
    <path id="Path_76" data-name="Path 76" d="M74.811,64.679,74.8,61.264l-.016-13.171-.008-17.662-.009-5.848c0-.947.053-1.934-.023-2.876a4.292,4.292,0,0,0-.813-1.941c-2.12-3.079-7.349-4.631-10.8-5.636-.039-.619.079-2.79-.193-3.192a1.45,1.45,0,0,0-.614-.182c-.619-.063-1.288-.013-1.912-.013a15.792,15.792,0,0,0-3.027.074.432.432,0,0,0-.293.19,5.854,5.854,0,0,0-.121,1.892c-.624-.1-1.247-.208-1.875-.281,0-.543.131-2.707-.167-3.021a.661.661,0,0,0-.322-.188,9.261,9.261,0,0,0-1.766-.025q-1.342,0-2.684.011a1.58,1.58,0,0,0-.815.185,5.88,5.88,0,0,0-.16,2.314c-1.551-.16-3.145-.235-4.7-.3q0-.577-.007-1.154t0-1.154a7.592,7.592,0,0,0-.031-1.249,1.062,1.062,0,0,0-.237-.552c-.288-.3-1.848-.155-2.306-.166q-.03-1.377-.032-2.753c-.008-1.331.208-2.8-.865-3.811a2.793,2.793,0,0,0-1.284-.67,8.942,8.942,0,0,0-2-.055c-.782,0-1.566-.019-2.348.011a2.72,2.72,0,0,0-1.9,1.023,2.885,2.885,0,0,0-.18.259,2.842,2.842,0,0,0-.151.278,2.8,2.8,0,0,0-.12.293,2.919,2.919,0,0,0-.087.3,9.479,9.479,0,0,0-.073,1.984c0,1.051.016,2.1.007,3.155-.538.007-1.9-.123-2.257.257a.739.739,0,0,0-.183.385A6.935,6.935,0,0,0,30.4,9.186l0,2.366c-1.605.086-3.206.245-4.81.329a4.029,4.029,0,0,0-.2-2.1,1.3,1.3,0,0,0-.586-.186,45.575,45.575,0,0,0-4.644.022.693.693,0,0,0-.444.337,12.315,12.315,0,0,0-.035,2.63q-1.084.162-2.164.345c.008-.54.163-1.64-.235-2.048a.748.748,0,0,0-.454-.153,14.522,14.522,0,0,0-1.682-.031c-.863,0-1.733-.03-2.6-.007a.919.919,0,0,0-.731.234c-.3.343-.178,2.656-.176,3.258l-.08.032c-.7.274-1.469.414-2.183.652-3.02,1.007-7.635,2.7-9.037,5.8a3.505,3.505,0,0,0-.337,1.311c-.026.825.01,1.662.012,2.489l.014,5.241L.044,45.1.063,59.646l.019,4.641c0,.805-.036,1.618,0,2.422a3.422,3.422,0,0,0,.208,1.114,6.566,6.566,0,0,0,2.947,2.938l.008,6.182c0,.954-.063,1.96.015,2.907a1.256,1.256,0,0,0,.2.691.727.727,0,0,0,.524.237c1.132.1,2.314.029,3.45.032l7.3.006L39.55,80.8l19.512-.013,7.105-.024c1.554,0,3.144.073,4.694-.02a1.336,1.336,0,0,0,.855-.231,1.192,1.192,0,0,0,.238-.724,22.416,22.416,0,0,0,.018-2.37l.006-4.6c0-.749-.023-1.515.027-2.262a5.449,5.449,0,0,0,2.711-3.434,13.534,13.534,0,0,0,.1-2.444M59.833,48.719l-.008-13.072c.686-.092,1.391-.121,2.081-.179q2.271-.177,4.536-.422c1.454-.17,2.93-.36,4.373-.61.815-.141,1.621-.344,2.439-.469l.018.012c.126.232.088,17.007.081,18.276a32.73,32.73,0,0,1-4.508.949c-2.966.471-5.932.751-8.925.974l-.067-.049a11.65,11.65,0,0,1-.018-1.7ZM73.341,32.405c-.459.128-.933.212-1.4.31a63.582,63.582,0,0,1-7.673,1.056c-1.474.131-2.959.216-4.425.41q-.061-3.375-.039-6.752c0-1.427-.018-2.857.014-4.284,4.492-.03,8.995-.063,13.486-.007ZM58.491,12.233c1.052-.024,2.109-.007,3.162-.008q0,.786-.015,1.572c-1.042-.271-2.092-.459-3.15-.654,0-.3,0-.607,0-.91m-7.821-1.4c.972,0,1.958-.031,2.928.027q.011.749,0,1.5a5.3,5.3,0,0,1-1-.089q-.967-.1-1.931-.215c-.007-.406,0-.813,0-1.22m-16.3-8.367a1.129,1.129,0,0,1,.241-.508,1.365,1.365,0,0,1,.966-.472l.049,0c.7-.018,1.4,0,2.1,0a8.461,8.461,0,0,1,1.61.05,1.429,1.429,0,0,1,.727.368,1.164,1.164,0,0,1,.311.618,9.78,9.78,0,0,1,.047,1.758l0,3.061-1.267,0q-2.421.022-4.842,0L34.321,4.2a9.455,9.455,0,0,1,.053-1.735M31.9,8.831l.126-.027c1.866-.038,3.735-.01,5.6-.015,1.811,0,3.63-.046,5.44.011a20.884,20.884,0,0,1-.018,2.665c-.087.058-.157.035-.259.031-3.658-.107-7.278-.2-10.937-.008A15.764,15.764,0,0,1,31.9,8.831m-10.743,2.2,2.991-.007c0,.292.1.8-.077,1.033l-.162.017c-.92.105-1.833.2-2.75.33-.014-.457,0-.916,0-1.374m-5.082,1.083v1.051l-.471.109q-1.239.265-2.471.561c-.022-.565-.012-1.135-.016-1.7q1.48,0,2.959-.022M2.507,20.075c1.775-1.873,4.923-3.041,7.354-3.8,7.8-2.428,16.067-3.193,24.2-3.418,1.366-.069,2.752-.042,4.12-.036q2.523.008,5.044.125t5.034.34q2.513.224,5.015.554t4.987.768A41.83,41.83,0,0,1,68.8,17.687c1.753.842,3.778,2.032,4.456,3.961q-4.54-.025-9.081.009l-23.452.008-39.219.048a3.905,3.905,0,0,1,1-1.638m51.6,46.947-.028-14.833-.026-29.045q2.15-.017,4.3-.009c.038,2.988.019,5.978.023,8.966l.011,15.835.032,25.217-.47.077q-1.9.283-3.815.485c-.05-2.229-.016-4.463-.026-6.693M22.3,66.078c-.008-3.294-.053-6.584.035-9.878,3.8.083,7.592.258,11.392.282q5.293.038,10.585-.054c2.768-.06,5.534-.185,8.3-.264.047,2.557.012,5.12.017,7.678q.032,5,0,9.994c-.172.027-.349.038-.523.055q-1.857.178-3.716.314t-3.722.229q-1.863.093-3.727.144t-3.729.059q-1.865.008-3.729-.027T29.752,74.5q-1.863-.078-3.724-.2t-3.719-.282c-.046-2.646,0-5.3-.011-7.942M52.624,42.435l0,12.25q-7.382.3-14.771.32t-14.772-.26l-.807-.063c-.069-2.306-.022-4.625-.017-6.932l.01-11.624c1.387,0,2.776.057,4.163.082l8.292.1q8.542.013,17.08-.244c.268-.015.538-.016.807-.023.069,2.126.011,4.269.011,6.4m.019-8.27a.657.657,0,0,1-.053.306c-.034.057-.106.043-.166.051-.513.042-1.035.033-1.55.047l-2.827.073q-4.166.089-8.333.1c-5.817.009-11.633.065-17.447-.163-.038-1.434-.016-2.874-.015-4.309l.02-7.092c6.481-.076,12.968-.016,19.449-.023l6.945-.013c1.31,0,2.647-.06,3.954.019l0,7.681c0,1.079.053,2.262.019,3.322M16.533,47.78l-.015-16.086q0-1.065-.006-2.13,0-3.195.024-6.389l4.257,0,.02,33.226V67.628c0,2.056.028,4.115-.015,6.169-1.408-.062-2.842-.313-4.241-.491-.042-2.729,0-5.461-.009-8.19ZM1.48,28.809l.011-5.622,13.536.018c.042,1.942.018,3.89.019,5.833,0,1.737.036,3.484-.022,5.22-.906-.008-1.824-.125-2.728-.191q-2.974-.193-5.919-.642A24.727,24.727,0,0,1,1.5,32.315c-.061-1.163-.026-2.341-.025-3.505M1.5,33.851a17.092,17.092,0,0,0,4,.945c3.172.494,6.347.679,9.538.986l.009,12.372v3.959c0,.7.04,1.432-.014,2.132-1.16-.023-2.331-.169-3.487-.278A54.747,54.747,0,0,1,1.521,52.317c-.092-.951-.03-1.961-.025-2.918V44.973c.014-3.705-.076-7.417.008-11.122m.84,34.458a2.78,2.78,0,0,1-.79-1.262A8.325,8.325,0,0,1,1.5,65.459l0-2.211.023-9.4a55.28,55.28,0,0,0,8.131,1.375c1.791.2,3.574.388,5.375.478.072,2.412.035,4.834.04,7.247L15.076,73a18.849,18.849,0,0,1-2.708-.538c-3-.688-7.81-1.917-10.024-4.15M70.536,79.282c-5.352-.059-10.712.018-16.065.023l-35.7.028c-4.683,0-9.37.092-14.053.011-.031-1.337-.005-2.68,0-4.018l-.009-3.735q.483.2.97.392A53.23,53.23,0,0,0,16.825,74.8,118.028,118.028,0,0,0,29.874,75.95q2.836.129,5.676.157t5.678-.044q2.839-.073,5.673-.245t5.661-.446A77.569,77.569,0,0,0,65.841,73.09q1.186-.334,2.344-.752t2.283-.921c.123.2.063,7.106.067,7.865m2.83-17.546,0,3.071a17.36,17.36,0,0,1-.036,1.844,2.416,2.416,0,0,1-.332.971c-1.4,2.363-6.724,3.862-9.282,4.477-1.237.3-2.493.5-3.727.81-.077-.015-.038,0-.109-.067-.071-.789-.028-1.621-.029-2.415l0-4.43.013-6.527c0-1.264-.032-2.531.009-3.795,1.424-.165,2.865-.238,4.293-.384a69.978,69.978,0,0,0,9.05-1.463l.1,0,.034.056c.037,1,.015,2,.014,2.994Z" transform="translate(0 0)" fill="#fff"/>
    <path id="Path_77" data-name="Path 77" d="M119.139,111.23a4.308,4.308,0,0,0-2.975-.817,4.536,4.536,0,0,0-3.118,1.8c-.042.058-.082.117-.121.178s-.076.121-.112.183-.07.125-.1.189-.064.128-.094.194-.058.131-.084.2-.051.134-.075.2-.044.136-.065.205-.038.138-.054.208-.031.14-.044.21-.024.141-.034.212-.018.142-.023.214-.01.143-.013.215,0,.143,0,.215,0,.143.008.215.011.143.019.214.018.142.03.213a4.232,4.232,0,0,0,1.745,2.74,4.669,4.669,0,0,0,3.047.8,4.391,4.391,0,0,0,2.966-1.676,4.488,4.488,0,0,0,.809-3.343,4.129,4.129,0,0,0-1.707-2.772m-.378,5.379a2.97,2.97,0,0,1-2.1.981,3.052,3.052,0,0,1-1.969-.671c-.036-.03-.071-.062-.105-.094s-.068-.066-.1-.1-.064-.069-.1-.1-.061-.072-.09-.109-.057-.075-.085-.113-.054-.077-.079-.117-.05-.08-.073-.121-.046-.082-.067-.124-.042-.084-.061-.127-.038-.086-.055-.13-.034-.088-.049-.132-.029-.09-.042-.135-.024-.091-.035-.137-.02-.092-.028-.138-.016-.093-.022-.14-.011-.093-.015-.14a2.853,2.853,0,0,1,.712-2.1,2.989,2.989,0,0,1,2.17-1,2.885,2.885,0,0,1,1.824.644,2.8,2.8,0,0,1,.367,4.111" transform="translate(-71.285 -70.127)" fill="#fff"/>
    <path id="Path_78" data-name="Path 78" d="M113.887,170.661a4.474,4.474,0,0,0,2.926,1.051,4.407,4.407,0,0,0,3.227-1.446c.049-.054.1-.108.141-.165s.09-.113.132-.171.084-.117.124-.178.078-.121.115-.183.072-.125.106-.189.066-.128.1-.194.059-.131.086-.2.053-.134.077-.2.046-.137.066-.206.039-.139.056-.209.032-.14.046-.212.025-.142.035-.213.018-.143.024-.215.011-.144.014-.216,0-.144,0-.216,0-.144-.008-.216-.01-.144-.018-.217-.017-.144-.028-.215-.024-.143-.039-.214-.031-.142-.05-.212-.038-.14-.06-.209-.045-.138-.07-.205-.052-.135-.081-.2-.059-.132-.09-.2-.065-.129-.1-.193-.072-.126-.11-.187-.078-.122-.119-.182-.084-.118-.128-.176-.09-.114-.136-.169-.1-.109-.145-.162-.1-.1-.152-.154-.106-.1-.16-.147-.1-.087-.152-.128-.1-.082-.158-.121-.108-.077-.163-.114-.111-.072-.169-.106-.115-.067-.173-.1-.118-.062-.178-.09-.12-.056-.182-.082-.123-.05-.185-.073-.125-.045-.189-.065-.127-.039-.191-.056-.129-.033-.193-.047-.13-.027-.2-.038-.131-.021-.2-.029-.132-.015-.2-.02-.132-.009-.2-.011-.133,0-.2,0a4.452,4.452,0,0,0-3.232,1.458,4.317,4.317,0,0,0-1.114,3.2,4.466,4.466,0,0,0,1.489,3.047m.729-5.246a2.879,2.879,0,0,1,2.139-.976,2.982,2.982,0,0,1,1.972.744q.053.048.1.1c.033.034.066.067.1.1s.063.071.093.107.059.074.088.112.055.076.081.116.052.079.076.119.048.082.07.123.044.084.064.126.04.086.058.13.035.088.051.132.031.089.045.134.027.091.038.136.022.092.031.138.018.093.025.139.013.093.018.14.008.094.011.141a2.88,2.88,0,0,1-.735,2.111,2.947,2.947,0,0,1-2.149.93,2.861,2.861,0,0,1-1.921-.661c-.037-.032-.073-.065-.108-.1s-.07-.069-.1-.1-.066-.072-.1-.11-.062-.076-.092-.114-.058-.079-.086-.119-.055-.081-.081-.123-.05-.084-.074-.127-.046-.086-.067-.131-.042-.089-.061-.133-.037-.09-.054-.136-.033-.092-.048-.139-.028-.094-.04-.141-.023-.1-.034-.143-.019-.1-.026-.144-.014-.1-.019-.146-.009-.1-.012-.146a2.882,2.882,0,0,1,.751-2.085" transform="translate(-71.391 -103.514)" fill="#fff"/>
  </g>
</svg>
