<svg xmlns="http://www.w3.org/2000/svg" xmlns:xlink="http://www.w3.org/1999/xlink" width="92.398" height="72.505" viewBox="0 0 92.398 72.505">
  <defs>
    <clipPath id="clip-path">
      <rect id="Rectangle_104" data-name="Rectangle 104" width="92.398" height="72.506" fill="#fff"/>
    </clipPath>
  </defs>
  <g id="Group_56" data-name="Group 56" transform="translate(0 0)">
    <g id="Group_55" data-name="Group 55" transform="translate(0 0)" clip-path="url(#clip-path)">
      <path id="Path_86" data-name="Path 86" d="M43.936,51.9C26.4,51.9,10.018,42.343.114,26.342a.758.758,0,0,1,0-.8C10.014,9.549,26.4,0,43.936,0S77.869,9.549,87.769,25.544a.763.763,0,0,1,0,.8,58.254,58.254,0,0,1-4.188,5.906.767.767,0,0,1-.526.281.735.735,0,0,1-.565-.185,11.125,11.125,0,0,0-18.454,8.39v4.381a.759.759,0,0,1-.759.759h-3.79V48.8a.757.757,0,0,1-.526.722A48.791,48.791,0,0,1,43.936,51.9M1.655,25.943C11.3,41.252,27.076,50.376,43.936,50.376a47.268,47.268,0,0,0,14.032-2.132V45.115a.759.759,0,0,1,.759-.759h3.79V40.734A12.642,12.642,0,0,1,82.874,30.7a55.687,55.687,0,0,0,3.354-4.752C76.583,10.639,60.808,1.52,43.936,1.52S11.3,10.639,1.655,25.943" transform="translate(0 0)" fill="#fff"/>
      <path id="Path_87" data-name="Path 87" d="M40.3,43.585A18.686,18.686,0,1,1,58.989,24.9,18.7,18.7,0,0,1,40.3,43.585m0-35.852A17.167,17.167,0,1,0,57.47,24.9,17.181,17.181,0,0,0,40.3,7.733" transform="translate(3.633 1.044)" fill="#fff"/>
      <path id="Path_88" data-name="Path 88" d="M39,33.244A9.652,9.652,0,0,1,29.368,23.6a9.539,9.539,0,0,1,2.088-5.988.763.763,0,0,1,.583-.287.892.892,0,0,1,.59.27,2.649,2.649,0,0,0,4.658-1.734,2.575,2.575,0,0,0-.13-.826.758.758,0,0,1,.63-1A10.168,10.168,0,0,1,39,13.955a9.645,9.645,0,0,1,0,19.289m-6.837-14.02A8.026,8.026,0,0,0,30.888,23.6,8.12,8.12,0,1,0,39,15.475q-.109,0-.214,0c.012.125.018.252.018.381a4.172,4.172,0,0,1-6.641,3.365" transform="translate(4.933 2.344)" fill="#fff"/>
      <path id="Path_89" data-name="Path 89" d="M34.489,20.358a4.169,4.169,0,1,1,4.161-4.174,4.186,4.186,0,0,1-4.161,4.174m0-6.817a2.649,2.649,0,1,0,2.642,2.643,2.658,2.658,0,0,0-2.642-2.643" transform="translate(5.09 2.019)" fill="#fff"/>
      <path id="Path_90" data-name="Path 90" d="M77.629,66.127H56.491a6.874,6.874,0,0,1-6.861-6.869V38.736a.76.76,0,0,1,.76-.76H83.3a.76.76,0,0,1,.76.76V59.693a6.441,6.441,0,0,1-6.433,6.433M51.15,39.5V59.258a5.352,5.352,0,0,0,5.341,5.349H77.629a4.919,4.919,0,0,0,4.914-4.914V39.5Z" transform="translate(8.337 6.379)" fill="#fff"/>
      <path id="Path_91" data-name="Path 91" d="M68.01,58.967h-5.9a.76.76,0,0,1-.733-.955l1.571-5.9a4.041,4.041,0,1,1,4.221,0l1.571,5.9a.759.759,0,0,1-.733.955M63.1,57.447h3.921L65.548,51.91a.758.758,0,0,1,.453-.9,2.516,2.516,0,1,0-1.875,0,.759.759,0,0,1,.451.9Z" transform="translate(10.251 7.497)" fill="#fff"/>
      <path id="Path_92" data-name="Path 92" d="M78.1,41.838H54.286a.76.76,0,0,1-.76-.76V36.7a12.667,12.667,0,0,1,25.333,0v4.38a.76.76,0,0,1-.76.76m-23.053-1.52H77.34V36.7a11.147,11.147,0,0,0-22.294,0Z" transform="translate(8.991 4.037)" fill="#fff"/>
    </g>
  </g>
</svg>
