<svg id="Group_39" data-name="Group 39" xmlns="http://www.w3.org/2000/svg" xmlns:xlink="http://www.w3.org/1999/xlink" width="82.079" height="78.51" viewBox="0 0 82.079 78.51">
  <defs>
    <clipPath id="clip-path">
      <rect id="Rectangle_96" data-name="Rectangle 96" width="82.079" height="78.51" fill="#fff"/>
    </clipPath>
  </defs>
  <g id="Group_38" data-name="Group 38" clip-path="url(#clip-path)">
    <path id="Path_71" data-name="Path 71" d="M80.234,5.149q-.075-.117-.152-.231c-.052-.077-.1-.152-.158-.227s-.108-.15-.163-.223-.111-.147-.169-.219-.115-.144-.174-.215-.119-.141-.18-.21-.122-.138-.184-.206-.126-.135-.19-.2-.129-.132-.194-.2-.132-.129-.2-.192-.135-.125-.2-.187-.138-.122-.209-.182-.141-.118-.213-.176-.144-.115-.217-.171-.147-.111-.222-.166-.15-.108-.225-.16-.152-.1-.229-.155-.155-.1-.233-.149-.157-.1-.237-.143-.16-.092-.24-.137S76.08,1.314,76,1.271s-.164-.084-.247-.125-.166-.081-.25-.119S75.334.951,75.25.914s-.17-.072-.255-.107-.172-.068-.258-.1-.173-.063-.26-.094S74.3.554,74.214.526,74.038.471,73.95.445s-.177-.051-.266-.074S73.5.325,73.415.3s-.18-.042-.27-.061A10.353,10.353,0,0,0,70.56.009a11.4,11.4,0,0,0-8.033,3.78,11.306,11.306,0,0,0-2.839,7.878l-6.816.011A21.407,21.407,0,0,0,48.9,11.8c-.128.029-.255.061-.381.1s-.25.079-.373.126-.244.1-.363.152-.236.114-.351.178-.227.131-.337.2-.218.147-.322.226-.206.162-.3.249-.194.176-.287.27c-1.871,1.9-1.47,4.264-1.5,6.685l-9.583.011V17.8c-.006-1.843-.17-3.232-1.542-4.6a5.379,5.379,0,0,0-3.954-1.56q-3.588.048-7.176-.014a11.726,11.726,0,0,0-3.584-8.519,11.315,11.315,0,0,0-7.9-3.044A11.423,11.423,0,0,0,.006,11.64a11.6,11.6,0,0,0,3.027,7.468L3.026,33.763a1.548,1.548,0,0,0-1.037.758,7.884,7.884,0,0,0-.128,3.534,1.5,1.5,0,0,0,.795.9,2.384,2.384,0,0,0,.381.133c.049,3.52-.186,5.873,1.308,9.221q.082.18.168.357t.177.353q.091.176.185.349t.194.344q.1.171.2.339t.21.334c.071.11.144.22.218.329s.15.217.226.324.155.213.234.318.16.209.242.312.165.2.249.306.17.2.257.3.175.2.264.294.18.192.271.287.184.188.278.28.189.183.285.273.194.178.292.266.2.174.3.259.2.169.3.252.206.164.31.244.21.159.316.237.214.154.322.229.217.148.327.221.221.143.332.213.224.138.338.2.228.132.343.2.231.127.347.188.234.121.352.18.236.115.356.171.239.11.36.162.242.1.364.154.244.1.368.144q.589.218,1.193.391t1.219.3q.615.129,1.237.213t1.25.122c.935.047,1.883.011,2.819.01,1.783,0,3.573-.036,5.355,0A1.726,1.726,0,0,0,26.812,59a1.374,1.374,0,0,0,.649.224,21.37,21.37,0,0,0,3.109,0,1.06,1.06,0,0,0,.792-.39,1.887,1.887,0,0,0,.277-1.107l12.476.02c2.088,0,4.312-.088,6.387.011.012.457-.03.839.321,1.18a1.214,1.214,0,0,0,.5.308,16.391,16.391,0,0,0,2.927.065,1.385,1.385,0,0,0,1.083-.414,1.755,1.755,0,0,0,.387-1.133c2.062-.027,4.25.084,6.291-.094q.185-.016.369-.037c.123-.014.246-.029.368-.045s.245-.034.367-.054.244-.04.366-.062.243-.045.364-.07.242-.051.362-.078.24-.056.36-.086.239-.062.358-.095.238-.067.356-.1.236-.073.354-.111.235-.077.351-.118.233-.083.349-.126.231-.088.346-.134.229-.093.342-.141.227-.1.339-.15.225-.1.336-.157.222-.108.332-.165.22-.113.328-.172.217-.118.324-.179.214-.123.321-.187.211-.128.316-.194.209-.133.312-.2.206-.137.307-.207.2-.142.3-.214.2-.147.3-.221.2-.151.292-.228.192-.155.287-.235.189-.159.282-.241.185-.163.276-.247.181-.167.271-.253.177-.172.265-.259.174-.176.259-.265a14.61,14.61,0,0,0,4.072-8.8c.133-1.562.028-3.194.018-4.762a1.723,1.723,0,0,0,1.187-.784,1.442,1.442,0,0,0,.18-.543,14.293,14.293,0,0,0-.053-3.007,1.454,1.454,0,0,0-.731-.942,1.218,1.218,0,0,0-.465-.137l-.086-.01-.06-.006L76.522,24.7c0-1.213.028-2.435-.007-3.647a14.752,14.752,0,0,0,1.58-1.116,11.555,11.555,0,0,0,3.749-6.3,11.456,11.456,0,0,0-1.61-8.489M34.106,21.437a1.037,1.037,0,0,1,.543-.187,13.345,13.345,0,0,1,1.469-.011l2.556,0c2.3-.005,4.612-.048,6.91.021a2.043,2.043,0,0,1,.351.365c0,.486.151,2.162-.154,2.461a.445.445,0,0,1-.306.1c-.425.035-.878-.006-1.307-.007l-2.756,0c-.77,0-6.921.092-7.134-.037a.631.631,0,0,1-.234-.329,8.8,8.8,0,0,1,.061-2.366m.979,3.988,9.6-.011c.043,3.447.008,6.9.014,10.347.006,3.3.054,6.621-.02,9.925-1.322.038-2.652,0-3.975,0L35.11,45.7c-.045-2.547-.015-5.1-.016-7.648ZM1.31,12.455q-.012-.122-.022-.244c-.006-.082-.012-.163-.016-.245s-.007-.163-.01-.245,0-.163,0-.245,0-.163,0-.245,0-.163.008-.245.008-.163.014-.245.012-.163.02-.244.016-.163.026-.244.02-.162.032-.243.024-.162.037-.243.028-.161.044-.241.032-.161.049-.24.036-.159.055-.239.04-.159.061-.238.043-.157.066-.236.047-.157.073-.235.051-.155.078-.232.055-.154.084-.231.059-.152.089-.228.062-.151.095-.226.066-.15.1-.224.07-.148.106-.221.073-.147.111-.219.077-.145.116-.216.08-.143.121-.213.084-.141.126-.21.087-.138.132-.207.091-.136.137-.2.093-.134.141-.2.1-.132.146-.2.1-.129.151-.193A10.467,10.467,0,0,1,8.169,1.809a11.259,11.259,0,0,1,2.257-.436,10.036,10.036,0,0,1,6.93,2.1q.1.079.195.161c.064.055.128.11.191.166s.125.113.187.17.122.115.182.174.119.119.178.179.117.122.174.184.114.125.169.188.11.127.165.192.107.13.159.2.1.133.155.2.1.135.15.2.1.137.145.207.094.14.14.211.09.142.134.214.087.144.129.217.084.147.124.22.08.148.118.224.076.15.113.226.073.152.107.229.069.154.1.232.065.155.1.234.061.157.09.236.057.158.084.238.053.16.078.24.049.161.072.242.045.162.066.244.041.163.06.246.037.164.054.247.033.165.048.248.029.166.042.249.025.167.036.25.021.167.029.251.016.163.022.245.012.164.016.246.008.164.01.246,0,.164,0,.246,0,.164,0,.246,0,.164-.008.246-.008.164-.014.246-.012.163-.02.245-.017.163-.027.244-.021.163-.032.244-.025.162-.038.243-.029.162-.044.242-.033.161-.05.241-.036.16-.056.239-.041.159-.062.238-.044.158-.068.236-.048.157-.074.235-.052.155-.08.233-.056.154-.085.231-.059.153-.091.229-.063.151-.1.226-.067.15-.1.224-.071.148-.107.221-.074.146-.113.219-.078.144-.118.216-.081.142-.124.213-.085.14-.128.21-.088.138-.134.207-.092.136-.139.2-.095.134-.143.2-.1.132-.149.2-.1.129-.153.192a10.02,10.02,0,0,1-6.9,3.62,9.98,9.98,0,0,1-10.714-8.9M4.253,20.2c.454.27.862.61,1.323.874a11.625,11.625,0,0,0,7.451,1.445l-.009,11.126L13,33.692c-.229.121-7.957.047-8.725.045-.1-4.511.081-9.028-.019-13.537M3.059,37.66a9.434,9.434,0,0,1,0-2.458.462.462,0,0,1,.325-.224c1.676-.062,3.38.01,5.06.01l3.772,0c.534,0,1.073-.025,1.606,0a1.5,1.5,0,0,1,.45.077,9.856,9.856,0,0,1,.056,2.674.416.416,0,0,1-.29.108l-7.759.011a23.662,23.662,0,0,1-3.018-.049.236.236,0,0,1-.2-.149M26.468,56.513c-2.541.018-5.094.062-7.634.013A15.122,15.122,0,0,1,8.351,52.012a14.417,14.417,0,0,1-3.994-8.149,36.846,36.846,0,0,1-.06-4.774c1.517-.039,3.041-.018,4.558-.015,1.352,0,2.708-.019,4.059.029,0,2.459-.245,4.356,1.658,6.264q.128.127.264.246t.279.227q.143.109.294.208t.307.188q.156.089.318.167t.329.146q.167.068.338.124t.346.1a17.623,17.623,0,0,0,4.129.192l5.285,0,.024,6.7a27.373,27.373,0,0,1-.015,2.845m3.845,1.372c-.854.059-1.724.029-2.579.032-.031-2.424-.013-4.851-.019-7.275,0-1.671-.052-3.352,0-5.022l2.577-.01a16.5,16.5,0,0,1,.04,1.688l0,2.612c0,2.658.023,5.319-.019,7.976m.476-13.4a1.708,1.708,0,0,0-.553-.144,15.826,15.826,0,0,0-3,.079,1.48,1.48,0,0,0-.789.91l-.03.375H21a17.3,17.3,0,0,1-3.341-.086,4.584,4.584,0,0,1-2.251-1.193c-1.47-1.46-1.214-3.369-1.219-5.255a2.443,2.443,0,0,0,.486-.151,1.476,1.476,0,0,0,.819-.882,12.782,12.782,0,0,0,.09-3.1,1.641,1.641,0,0,0-.177-.552,1.77,1.77,0,0,0-1.151-.815l.011-11.415A10.291,10.291,0,0,0,17.409,20.8a11.421,11.421,0,0,0,4.265-5.376,15.939,15.939,0,0,0,.664-2.555q3.525.029,7.05.011a4.425,4.425,0,0,1,3.3,1.235c1.087,1.1,1.164,2.373,1.166,3.835v2.076A1.951,1.951,0,0,0,33,20.74a8.165,8.165,0,0,0-.172,3.608,1.869,1.869,0,0,0,1,1l.01,20.341-2.265-.005a2.61,2.61,0,0,0-.091-.365,1.34,1.34,0,0,0-.694-.841M50.532,56.437l-.081.048-18.863.033c-.041-2.439-.022-4.882-.017-7.321a17.729,17.729,0,0,1,.025-2.217l.1-.037,10.09,0c2.922,0,5.845-.031,8.766,0l.006,6.74a22.487,22.487,0,0,1-.027,2.748m3.906,1.228a1.112,1.112,0,0,1-.064.364,13,13,0,0,1-2.564.007c-.067-2.653-.023-5.308-.025-7.962l0-2.852c0-.555-.032-1.121.02-1.673a11.832,11.832,0,0,1,2.491.024c.055.015.109.018.133.075.077.184.041,10.992.014,12.016m.223-13.337a13.466,13.466,0,0,0-2.954-.011,1.677,1.677,0,0,0-.693.253,1.547,1.547,0,0,0-.509,1.1c-1.518.041-3.043.009-4.561.013-.043-2.245-.014-4.495-.018-6.74l0-13.476a1.9,1.9,0,0,0,1.139-.962,8.592,8.592,0,0,0,.03-3.4,1.994,1.994,0,0,0-1.183-1.1c-.044-.564-.017-1.147-.017-1.713,0-1.463,0-2.706.985-3.9a4.258,4.258,0,0,1,2.9-1.46c1.091-.071,2.215-.021,3.309-.025l6.73-.007q.094.528.218,1.05A11.277,11.277,0,0,0,65.5,21.14l.01,12.528a3.042,3.042,0,0,0-.464.219,1.451,1.451,0,0,0-.687.93,15.319,15.319,0,0,0-.006,2.9,1.791,1.791,0,0,0,.268.7,1.566,1.566,0,0,0,1.042.642c-.034.93-.008,1.861-.008,2.791a3.1,3.1,0,0,1-.968,2.357,5.922,5.922,0,0,1-4.389,1.492l-4.541-.024a1.767,1.767,0,0,0-.212-.772,1.323,1.323,0,0,0-.88-.583M73.24,49.6a14.872,14.872,0,0,1-9.606,6.544,41.858,41.858,0,0,1-7.926.345c-.034-1.106-.012-2.219-.015-3.325q-.012-1.56-.01-3.119t.019-3.119l3.507.007c2.3.006,4.225.052,6.084-1.584,2.215-1.949,1.438-3.692,1.593-6.235l.056-.066c1.529-.042,3.065-.011,4.594-.005,1.247,0,2.5-.022,3.743.015.016,4.255.382,6.676-2.041,10.543m3.337-14.58a.63.63,0,0,1,.048.135,12.128,12.128,0,0,1-.049,2.549,6.393,6.393,0,0,1-1.923.078l-5.841,0a23.43,23.43,0,0,1-3.167-.05,15.252,15.252,0,0,1-.044-2.778l2.1-.03c1.069-.015,8.48-.1,8.871.092M66.731,21.839c3.58,1.025,4.955,1.017,8.489-.1a.084.084,0,0,1,.016.011.238.238,0,0,1,.047.067c.013.036.062,10.786,0,11.841-2.821.045-5.663.03-8.484-.017l-.008-.632ZM78.452,17.8a10.023,10.023,0,0,1-6.925,3.518,9.751,9.751,0,0,1-6.836-2.2,10.414,10.414,0,0,1-3.764-7.1A10.289,10.289,0,0,1,63.3,4.782c.055-.064.11-.127.166-.19s.113-.125.17-.186.116-.122.175-.181.119-.119.179-.177.122-.116.184-.173.125-.113.188-.168.128-.11.192-.163.13-.106.2-.158.132-.1.2-.154.135-.1.2-.148.137-.1.207-.143.14-.093.211-.138.142-.089.214-.133.145-.086.218-.127.147-.082.221-.122.148-.079.224-.117.15-.075.226-.111.152-.071.229-.1.154-.067.232-.1.156-.063.234-.093.157-.06.236-.088.159-.055.239-.082.16-.052.24-.076.161-.048.242-.07.162-.044.244-.064.163-.04.245-.058l.247-.052q.124-.024.248-.045t.249-.039q.125-.018.25-.033c.083-.01.167-.019.251-.027s.167-.015.251-.021A10.109,10.109,0,0,1,77.4,3.733a10.264,10.264,0,0,1,3.4,6.921,9.892,9.892,0,0,1-2.347,7.15" transform="translate(0 0)" fill="#fff"/>
    <path id="Path_72" data-name="Path 72" d="M12.184,17.75c0,.055,0,.11.008.165s.007.11.012.165.011.11.017.165a6.616,6.616,0,0,0,2.395,4.378,7.456,7.456,0,0,0,3.754,1.567c0,.314-.073.811.166,1.06a.767.767,0,0,0,.616.159.61.61,0,0,0,.38-.333,2.393,2.393,0,0,0,.066-.92,6.757,6.757,0,0,0,4.838-2.779q.1-.135.187-.275t.173-.284q.083-.144.159-.292t.144-.3c.046-.1.089-.2.13-.306s.078-.207.114-.312.069-.21.1-.317.058-.214.084-.321.048-.216.067-.325.037-.218.052-.328.027-.22.036-.33.016-.221.019-.332,0-.221,0-.332-.006-.221-.013-.332-.016-.221-.029-.331-.027-.22-.045-.329c-.009-.055-.019-.109-.029-.164s-.021-.109-.033-.163-.024-.108-.037-.163-.026-.108-.041-.162-.029-.107-.045-.16-.032-.107-.049-.159-.034-.106-.053-.158-.037-.1-.057-.157-.04-.1-.061-.155-.042-.1-.065-.154-.045-.1-.069-.152-.047-.1-.072-.15-.05-.1-.076-.148-.052-.1-.08-.147-.055-.1-.083-.144-.057-.1-.087-.142-.059-.094-.09-.14-.062-.092-.094-.138-.064-.091-.1-.136-.066-.089-.1-.133-.069-.087-.1-.13-.071-.085-.107-.128-.073-.084-.11-.125-.075-.082-.113-.122l-.117-.119q-.059-.059-.119-.117l-.122-.114c-.041-.037-.083-.074-.125-.11l-.128-.107-.13-.1-.133-.1-.135-.1a6.559,6.559,0,0,0-3.225-1.21A1.189,1.189,0,0,0,19.4,9.87a.75.75,0,0,0-.612-.151c-.188.111-.35.212-.4.438a3.209,3.209,0,0,0-.046.567,6.914,6.914,0,0,0-4.675,2.567l-.1.13c-.034.044-.067.088-.1.133s-.065.089-.1.135-.062.091-.093.137-.06.093-.089.14-.058.094-.086.141-.055.1-.082.144-.053.1-.078.146-.051.1-.075.148-.048.1-.071.15-.045.1-.067.151-.043.1-.064.153-.04.1-.06.154-.038.1-.056.156-.036.1-.052.157-.033.105-.048.158-.03.106-.044.159-.027.107-.04.161-.025.108-.036.162-.022.108-.033.162-.019.108-.028.163-.017.109-.024.164-.014.11-.021.164-.011.11-.016.165-.009.11-.012.165-.006.11-.008.166,0,.11,0,.165,0,.11,0,.166,0,.11,0,.166m6.149,5.211c-.216-.034-.428-.093-.64-.145a7.721,7.721,0,0,1-2.026-.968,5.611,5.611,0,0,1-2.217-3.63l.769-.018c.492-.033.986-.023,1.479-.024a4.264,4.264,0,0,0,.39,1,3.453,3.453,0,0,0,2.282,1.551q.02,1.116-.037,2.231m5.931-4a5.708,5.708,0,0,1-2.949,3.476,7.628,7.628,0,0,1-1.691.519L19.6,20.7a4.022,4.022,0,0,0,.751-.257A3.729,3.729,0,0,0,22.21,18.16c.742-.021,1.5-.021,2.237.009a6.567,6.567,0,0,1-.182.791m-4.673-7a6.3,6.3,0,0,1,2.524.953,5.659,5.659,0,0,1,2.329,4q-1.071,0-2.143-.019a5.184,5.184,0,0,0-.587-1.39,3.17,3.17,0,0,0-2.133-1.4Zm-.578,3.3a2.02,2.02,0,0,1,1.237.446c.028.022.055.046.082.07s.053.048.078.074.051.051.075.078.048.054.07.082.045.056.066.085.042.058.062.088.039.06.057.091.036.062.053.094.033.064.048.1.029.066.043.1.026.067.038.1.023.068.033.1.019.069.027.1.015.07.022.106.012.071.017.107.008.071.011.107,0,.071.005.106,0,.071,0,.107,0,.071-.005.106-.006.071-.01.106-.01.07-.015.105-.013.07-.021.1-.016.069-.026.1-.02.068-.031.1-.023.067-.036.1-.026.066-.041.1-.029.065-.045.1-.032.063-.05.094-.036.061-.055.091-.038.06-.059.089-.041.058-.063.086-.044.055-.067.082a2.179,2.179,0,0,1-1.633.741,2.146,2.146,0,0,1-1.3-.482,2.078,2.078,0,0,1-.719-1.417,2.184,2.184,0,0,1,.541-1.573,2.206,2.206,0,0,1,1.61-.776m-4.686-.766a5.806,5.806,0,0,1,3.918-2.469l.045.005a10.639,10.639,0,0,1,.05,2,6.976,6.976,0,0,0-1.011.458A3.7,3.7,0,0,0,15.6,16.943c-.679.055-1.365.038-2.045.037l-.066-.012-.046-.083a5.571,5.571,0,0,1,.884-2.391" transform="translate(-7.716 -6.153)" fill="#fff"/>
    <path id="Path_73" data-name="Path 73" d="M185.631,12.173a7.261,7.261,0,0,0-3.216-1.308,1.061,1.061,0,0,0-.281-.741.862.862,0,0,0-.629-.083.708.708,0,0,0-.364.523c-.019.1-.031.2-.044.305a6.862,6.862,0,0,0-4.532,2.391c-.036.042-.071.084-.106.127s-.069.086-.1.13-.067.088-.1.132l-.1.134q-.047.068-.092.137c-.03.046-.06.092-.089.139s-.057.094-.085.141-.055.1-.082.143l-.078.145c-.025.049-.05.1-.075.147s-.048.1-.071.149-.046.1-.067.151-.043.1-.064.152-.04.1-.059.154-.038.1-.056.155-.036.1-.052.157-.033.1-.048.158-.031.106-.044.159-.028.107-.04.16-.025.107-.036.161-.022.108-.032.162-.02.108-.029.163-.016.109-.024.163-.014.109-.02.164-.012.11-.016.164-.009.11-.012.165-.006.11-.008.165,0,.11,0,.165,0,.11,0,.165,0,.11,0,.165,0,.11.008.165.008.11.013.165a6.829,6.829,0,0,0,2.325,4.593,7.279,7.279,0,0,0,3.857,1.591c0,.27-.033.633.184.835a.654.654,0,0,0,.485.148.679.679,0,0,0,.469-.3,1.484,1.484,0,0,0,.1-.7,6.752,6.752,0,0,0,5.928-7.616,6.845,6.845,0,0,0-2.722-4.54m-9.4,4.783a5.7,5.7,0,0,1,1.1-2.658,5.364,5.364,0,0,1,3.687-2.125l.08.018a9.551,9.551,0,0,1,.017,2.04,5.044,5.044,0,0,0-1.1.453,3.6,3.6,0,0,0-1.584,2.329q-1.044.039-2.088.031a.447.447,0,0,1-.1-.048c0-.013-.008-.026-.01-.04m4.9,6.157a5.886,5.886,0,0,1-3.157-1.445,5.029,5.029,0,0,1-1.707-3.3l.06-.065c.7-.051,1.424-.025,2.13-.009a5.77,5.77,0,0,0,.326.784,3.572,3.572,0,0,0,2.407,1.773,13.338,13.338,0,0,1-.06,2.265m.99-3.486a2.468,2.468,0,0,1-1.429-.258,2.079,2.079,0,0,1-.713-2.926,2.223,2.223,0,0,1,1.455-1,2.373,2.373,0,0,1,1.351.242,2.158,2.158,0,0,1,1.035,1.33c.008.033.016.066.023.1s.013.066.018.1.01.067.014.1.006.067.008.1,0,.067,0,.1,0,.067,0,.1,0,.067-.007.1-.007.067-.012.1-.01.067-.016.1-.014.066-.022.1-.017.065-.027.1-.02.065-.031.1-.023.063-.036.095-.027.062-.041.093-.029.06-.046.091-.032.059-.05.088a2.264,2.264,0,0,1-1.475,1.054m4.8-.421a5.837,5.837,0,0,1-2.965,3.43,5.923,5.923,0,0,1-1.569.467c-.018-.748-.006-1.5-.008-2.246a4.586,4.586,0,0,0,.757-.277,3.767,3.767,0,0,0,1.869-2.273q1.07,0,2.138.041a7.314,7.314,0,0,1-.222.859m-1.9-2.138a4.569,4.569,0,0,0-.338-1.026,3.705,3.705,0,0,0-2.317-1.828q-.008-1.032.023-2.063a5.656,5.656,0,0,1,2.789,1.255,5.519,5.519,0,0,1,1.97,3.663Z" transform="translate(-110.851 -6.348)" fill="#fff"/>
    <path id="Path_74" data-name="Path 74" d="M68.047,182.992q-.007-.057-.015-.113c-.006-.038-.013-.075-.021-.113s-.017-.074-.027-.111-.021-.073-.032-.11-.025-.073-.038-.108-.028-.071-.043-.106-.031-.069-.048-.1-.035-.068-.054-.1-.038-.066-.058-.1-.041-.064-.064-.1-.044-.062-.067-.092-.048-.059-.073-.088-.051-.057-.077-.085-.053-.055-.081-.081a1.981,1.981,0,0,0-.205-.17,2.025,2.025,0,0,0-.723-.329,7.038,7.038,0,0,0-1.61-.082c-.791,0-1.583.014-2.373-.029a6.107,6.107,0,0,0,2.068-4.448c.014-2.155-1.2-3.764-2.661-5.229a18.8,18.8,0,0,0-2.323-2.071,1.041,1.041,0,0,0-.5-.145h-.057a1.241,1.241,0,0,0-.416.171,26.9,26.9,0,0,0-3.231,3.067,7.269,7.269,0,0,0-.732,1.013,6.027,6.027,0,0,0-.744,4.788,5.96,5.96,0,0,0,1.809,2.9q-.957.007-1.913,0c-1.075,0-2.233-.124-3.064.709a2.214,2.214,0,0,0-.594,1.606,2.294,2.294,0,0,0,.754,1.65,2.185,2.185,0,0,0,1.023.533,13.416,13.416,0,0,0,2.71.071l4.629-.024,4.664-.01a13.119,13.119,0,0,0,2.34-.015,2.281,2.281,0,0,0,1.171-.631c.028-.028.055-.056.081-.085s.052-.058.077-.089.049-.061.072-.092.046-.063.067-.1.043-.066.063-.1.04-.068.058-.1.036-.07.052-.105.032-.071.047-.107.029-.073.042-.11.025-.074.036-.112.021-.075.03-.113.018-.076.025-.115.014-.077.019-.116.01-.078.013-.117.006-.078.007-.117,0-.078,0-.117,0-.076,0-.114-.005-.076-.01-.114m-13.094-6.814c.147-1.833,1.432-3.157,2.686-4.368.452-.437.9-.888,1.375-1.3a.893.893,0,0,1,.394.253c.445.39.859.83,1.283,1.243,1.261,1.229,2.387,2.417,2.5,4.279a4.481,4.481,0,0,1-1.146,3.3,4.091,4.091,0,0,1-2.9,1.359c-.151,0-.3,0-.455-.011a4.071,4.071,0,0,1-2.631-1.288,4.745,4.745,0,0,1-1.107-3.467m11.7,7.548a1.1,1.1,0,0,1-.748.553c-2.678.085-5.376.023-8.056.023h-3.5c-.622,0-1.257.029-1.877-.01a1.576,1.576,0,0,1-.583-.132.842.842,0,0,1-.463-.528,1.066,1.066,0,0,1,.135-.841,1.024,1.024,0,0,1,.688-.485c.87-.033,1.751-.007,2.622,0l4.23,0,4.62-.007c.649,0,1.315-.041,1.962-.011a1.5,1.5,0,0,1,.66.16.831.831,0,0,1,.413.505,1.05,1.05,0,0,1-.1.78" transform="translate(-31.724 -107.116)" fill="#fff"/>
    <path id="Path_75" data-name="Path 75" d="M146.165,181.667a2.193,2.193,0,0,0-.434-.3,2.107,2.107,0,0,0-.242-.11,2.187,2.187,0,0,0-.253-.08,28.935,28.935,0,0,0-4.13-.093,5.883,5.883,0,0,0,2.116-4.251,6.882,6.882,0,0,0-2.263-4.966c-.482-.505-1.011-.955-1.523-1.429a10.291,10.291,0,0,0-1.094-.974,1.106,1.106,0,0,0-.568-.237c-.1,0-.205.008-.307.016a18.2,18.2,0,0,0-3.913,3.666,6.738,6.738,0,0,0-.886,1.637,5.641,5.641,0,0,0,.071,4.438,6.181,6.181,0,0,0,1.616,2.064,35.543,35.543,0,0,0-3.9.086,2.429,2.429,0,0,0-1.142.709,2.378,2.378,0,0,0-.553,1.735,2.157,2.157,0,0,0,.769,1.514,2.417,2.417,0,0,0,1.161.52,15.219,15.219,0,0,0,2.443.022h5.076q2.131-.006,4.262.011a13.019,13.019,0,0,0,2.551-.035c.057-.012.114-.025.17-.041s.112-.034.167-.053.109-.041.162-.065.106-.049.157-.077.1-.057.151-.088.1-.064.144-.1.093-.071.137-.109.087-.077.129-.118a2.323,2.323,0,0,0,.683-1.667,2.286,2.286,0,0,0-.76-1.624m-12.595-5.475c.214-1.88,1.409-3.088,2.715-4.33.452-.43.9-.885,1.382-1.277l.022.016c1.706,1.341,4.065,3.35,4.266,5.63a4.347,4.347,0,0,1-4,4.771,5.59,5.59,0,0,1-.607-.019c-.071-.008-.141-.018-.211-.029s-.14-.025-.21-.04-.139-.032-.208-.05-.137-.038-.205-.06-.135-.045-.2-.07-.133-.052-.2-.08-.13-.058-.194-.089-.127-.064-.189-.1-.124-.07-.184-.108-.12-.076-.178-.117-.117-.082-.173-.126-.112-.088-.166-.134-.108-.093-.159-.142-.1-.1-.152-.15-.1-.1-.145-.157-.092-.108-.137-.164a4.289,4.289,0,0,1-.864-3.177m12.062,7.252c0,.034-.007.069-.014.1a.954.954,0,0,1-.024.1.941.941,0,0,1-.035.1.994.994,0,0,1-.044.093,1.012,1.012,0,0,1-.664.5c-.746.071-1.509.044-2.259.044l-3.482,0c-2.547,0-5.118.086-7.662,0a2.493,2.493,0,0,1-.769-.093.92.92,0,0,1-.528-.5,1.233,1.233,0,0,1-.027-.861,1.19,1.19,0,0,1,.686-.557c.737-.05,1.488-.026,2.227-.027l3.9,0,4.7.007c.907,0,1.818-.023,2.725.006a1.959,1.959,0,0,1,.66.083,1.034,1.034,0,0,1,.554.595,1.02,1.02,0,0,1,.029.1.952.952,0,0,1,.019.1c0,.034.007.069.008.1s0,.069,0,.1" transform="translate(-81.569 -107.206)" fill="#fff"/>
  </g>
</svg>
