<svg version="1.2" xmlns="http://www.w3.org/2000/svg" viewBox="0 0 502 139" width="502" height="139">
	<style>
		.s0 { fill: #52bd92 } 
		.s1 { fill: #13abce } 
		.s2 { fill: #535a75 } 
	</style>
	<filter id="f0">
		<feFlood flood-color="#000000" flood-opacity="1" />
		<feBlend mode="normal" in2="SourceGraphic"/>
		<feComposite in2="SourceAlpha" operator="in" />
	</filter>
	<g id="Folder 1" filter="url(#f0)">
		<path class="s0" d="m5.5 113.2c-1.4 0-2.8-0.5-3.8-1.6-2.1-2.1-2.1-5.5 0-7.6l36-36-36-36c-2.1-2.1-2.1-5.5 0-7.6 2.1-2.1 5.5-2.1 7.6 0l39.9 39.9c2.1 2.1 2.1 5.5 0 7.6l-39.9 39.8c-1.1 1-2.5 1.5-3.8 1.5z"/>
		<path class="s1" d="m113.3 5.1c0-0.1 0-0.3 0-0.4 0-0.1 0-0.3-0.1-0.4 0-0.1-0.1-0.3-0.1-0.4 0-0.1-0.1-0.3-0.1-0.4 0-0.1 0-0.2-0.1-0.2 0 0 0-0.1-0.1-0.1-0.1-0.1-0.1-0.3-0.2-0.4-0.1-0.1-0.1-0.2-0.2-0.3-0.1-0.1-0.2-0.2-0.2-0.3-0.1-0.1-0.2-0.2-0.2-0.3q-0.15-0.15-0.3-0.3-0.15-0.15-0.3-0.3c-0.1-0.1-0.2-0.2-0.3-0.2-0.1-0.1-0.2-0.2-0.3-0.2-0.1-0.1-0.2-0.1-0.3-0.2-0.1-0.1-0.2-0.1-0.4-0.2 0 0-0.1 0-0.1-0.1-0.1 0-0.2 0-0.2-0.1-0.1 0-0.3-0.1-0.4-0.1-0.1 0-0.3-0.1-0.4-0.1-0.1 0-0.3-0.1-0.4-0.1-0.1 0-0.3 0-0.4 0-0.1 0-0.2 0-0.2 0h-17.1c-3 0-5.4 2.4-5.4 5.4 0 3 2.4 5.4 5.4 5.4h4.1l-32.6 32.5-41.8-41.7c-2.1-2.1-5.5-2.1-7.6 0-2.1 2.1-2.1 5.5 0 7.6l45.6 45.6c1 1.1 2.4 1.6 3.8 1.6 1.4 0 2.8-0.5 3.8-1.6l36.4-36.4v4.1c0 3 2.4 5.4 5.4 5.4 3 0 5.4-2.4 5.4-5.4v-17.1c-0.1-0.1-0.1-0.2-0.1-0.3z"/>
		<path class="s1" d="m107.9 108.2c-3 0-5.4 2.4-5.4 5.4v4.1l-36.3-36.4c-2.1-2.1-5.5-2.1-7.6 0l-45.6 45.5c-2.1 2.1-2.1 5.5 0 7.6 2.1 2.1 5.5 2.1 7.6 0l41.8-41.7 32.6 32.6h-4.1c-3 0-5.4 2.4-5.4 5.4 0 3 2.4 5.4 5.4 5.4h17.1c0.2 0 0.5 0 0.7-0.1 0.1 0 0.1 0 0.2 0 0.2 0 0.5-0.1 0.7-0.2 0 0 0 0 0.1 0 0.1 0 0.3-0.1 0.4-0.2 0 0 0.1 0 0.1-0.1 0.1-0.1 0.2-0.1 0.4-0.2 0.1-0.1 0.2-0.1 0.3-0.2 0.1-0.1 0.2-0.2 0.3-0.2 0.1-0.1 0.2-0.2 0.3-0.2q0.15-0.15 0.3-0.3 0.15-0.15 0.3-0.3c0.1-0.1 0.2-0.2 0.2-0.3 0.1-0.1 0.2-0.2 0.2-0.3 0.1-0.1 0.1-0.2 0.2-0.3 0.1-0.1 0.1-0.2 0.2-0.4 0 0 0-0.1 0.1-0.1 0-0.1 0-0.2 0.1-0.2 0-0.1 0.1-0.3 0.1-0.4 0-0.1 0.1-0.3 0.1-0.4 0-0.1 0-0.3 0.1-0.4 0-0.1 0-0.3 0-0.4 0-0.1 0-0.2 0-0.2v-17.1c-0.1-3-2.5-5.4-5.5-5.4z"/>
		<path class="s2" d="m189.4 55.2c0 13.7-8.4 25.9-29.7 25.9h-11.2v26h-17.5v-78.4h30c20.4 0 28.4 13.1 28.4 26.5zm-17.9-0.2c0-5.4-3.8-10.2-10.4-10.2h-12.6v20.5h11.9c7.7 0 11.1-5.1 11.1-10.3z"/>
		<path class="s2" d="m189.8 94.3l9.5-12.5c5.4 6.5 13.1 10.4 21.3 10.4 5.7 0 10.3-2.7 10.3-7.1 0-3.5-3-5.6-6.8-7.3-4.9-2-11.4-3.8-17.1-6.9-7-3.8-12.6-9.6-12.6-19.8 0-13.4 11.3-23.5 27.9-23.5 9.2 0 19 3.2 26.6 10.4l-8.7 13c-4.7-4.6-12.2-7-17.7-7-6 0-9.3 2.8-9.3 6.5 0 3.6 3.3 5.5 6.4 6.9 4.1 1.8 11.3 4.3 16.6 6.8 8 3.6 14.1 9.4 14.1 19.9 0 14.1-11.8 24.5-29.8 24.5-12.3-0.1-23.5-5.1-30.7-14.3z"/>
		<path class="s2" d="m256.4 78.2c0-17.6 12.6-30.1 30.9-30.1 11.4 0 21.9 5.6 26.7 15.8l-11.2 6c-3.3-5.5-8.8-9.1-15.3-9.1-10 0-17.3 7.5-17.3 17.4 0 9.9 7.1 17.4 16.9 17.4 6.4 0 12.7-3.7 15.5-9l11.2 6.6c-4.9 9.1-15.1 15.2-26.9 15.2-18 0-30.5-12.7-30.5-30.2z"/>
		<path class="s2" d="m313.8 78.2c0-16.6 12.5-30.2 30.7-30.2 18.2 0 30.7 13.6 30.7 30.2 0 16.8-12.5 30.3-30.7 30.3-18.2 0.1-30.7-13.5-30.7-30.3zm47.6 0c0-9.5-7.3-17.4-16.9-17.4-9.5 0-16.9 7.8-16.9 17.4 0 9.8 7.3 17.5 16.9 17.5 9.6 0 16.9-7.7 16.9-17.5z"/>
		<path class="s2" d="m440.4 49.5v57.6h-13.1v-7.1c-4.3 4.9-10.5 8.5-18.8 8.5-16.6 0-28.5-13.4-28.5-30.4 0-17.3 12.1-29.9 28.5-29.9 8.3 0 14.3 3.7 18.8 8.7v-7.3h13.1zm-12.8 28.7c0-9.5-6.9-17.5-17-17.5-10.2 0-16.9 8-16.9 17.5 0 9.6 6.8 17.6 16.9 17.6 10.1 0 17-7.9 17-17.6z"/>
		<path class="s2" d="m492.1 103.7c-4.5 3.1-10.8 4.8-16.6 4.8-13 0-19.7-7.8-19.7-22.5v-24.8h-9.5v-11.7h9.8v-20.3h13.7v20.4h19.2v11.7h-19.3v24.3c0 6.8 2.4 10.4 8.4 10.4 3.7 0 6.9-1.3 9.8-3z"/>
		<path class="s2" d="m267.2 129.1c0 2.5-1.6 4.8-5.4 4.8h-2.4v5.3h-2.7v-14.9h5.4c3.6 0 5.1 2.4 5.1 4.8zm-2.8 0c0-1.2-0.8-2.3-2.3-2.3h-2.7v4.6h2.5c1.8 0 2.5-1.2 2.5-2.3z"/>
		<path class="s2" d="m270.6 131.8c0-4.3 3.4-7.8 7.7-7.8 4.3 0 7.8 3.5 7.8 7.7 0 4.3-3.4 7.7-7.8 7.7-4.5 0-7.7-3.3-7.7-7.6zm12.6-0.1c0-2.9-2.2-5-4.9-5-2.7 0-4.9 2.1-4.9 5 0 2.8 2.1 5 4.9 5 2.8 0 4.9-2.1 4.9-5z"/>
		<path fill-rule="evenodd" class="s2" d="m288.7 124.3h3l3.1 10.2 3.6-10.2h1.6l3.6 10.2 3.1-10.2h3l-4.9 14.9h-2.2l-3.4-10.1-3.3 10.1h-2.2z"/>
		<path fill-rule="evenodd" class="s2" d="m313.6 124.3h9.9v2.6h-7.1v3.5h6.6v2.5h-6.6v3.7h7.1v2.6h-9.9z"/>
		<path class="s2" d="m332.9 133.6h-1.8v5.6h-2.7v-14.9h5.6c3.4 0 5 2.2 5 4.7 0 1.8-0.9 3.6-3.1 4.3l3.8 5.9h-3.3zm-1.8-2.5h2.5c1.8 0 2.5-1.1 2.5-2.2 0-1.1-0.8-2.1-2.2-2.1h-2.8z"/>
		<path class="s2" d="m349.6 136.6l1.7-1.9c1 1.4 2.4 2.2 3.9 2.2 1.4 0 2.3-0.7 2.3-1.7 0-0.8-0.6-1.3-1.4-1.7-1-0.5-2.2-0.8-3.2-1.4-1.3-0.8-2.3-1.9-2.3-3.7 0-2.4 2-4.3 4.9-4.3 1.7 0 3.4 0.6 4.8 2.1l-1.5 2c-0.9-1-2.2-1.5-3.2-1.5-1.2 0-2 0.6-2 1.6 0 0.8 0.6 1.2 1.2 1.6 0.8 0.4 2.3 1 3.4 1.5 1.4 0.7 2.5 1.8 2.5 3.7 0 2.6-2.2 4.5-5.3 4.5-2.6-0.2-4.6-1.1-5.8-3z"/>
		<path fill-rule="evenodd" class="s2" d="m364.9 124.3h1.7l6 8.7 6-8.7h1.7v14.9h-2.7v-8.9l-4.5 6.6h-1l-4.5-6.6v8.9h-2.7z"/>
		<path class="s2" d="m393.7 135.8h-5.3l-1.2 3.4h-2.9l5.8-14.9h2.1l5.7 14.9h-2.9zm-4.5-2.5h3.7l-1.8-5.1z"/>
		<path class="s2" d="m406.3 133.6h-1.8v5.6h-2.7v-14.9h5.6c3.4 0 5 2.2 5 4.7 0 1.8-0.9 3.6-3.1 4.3l3.8 5.9h-3.3zm-1.8-2.5h2.5c1.8 0 2.5-1.1 2.5-2.2 0-1.1-0.7-2.1-2.2-2.1h-2.8z"/>
		<path fill-rule="evenodd" class="s2" d="m415.5 126.9v-2.6h11.4v2.6h-4.3v12.3h-2.8v-12.3z"/>
		<path class="s2" d="m436.4 131.8c0-4.6 3.5-7.8 7.7-7.8 2.8 0 5.1 1.3 6.4 3.1l-1.9 1.8c-1.1-1.3-2.6-2.3-4.4-2.3-2.8 0-5 2.1-5 5.1 0 2.9 2.2 5 5 5 1.8 0 3.4-0.9 4.5-2.3l1.9 1.7c-1.3 1.8-3.7 3.2-6.6 3.2-4.2 0.1-7.6-3-7.6-7.5z"/>
		<path class="s2" d="m453.7 131.8c0-4.3 3.4-7.8 7.7-7.8 4.3 0 7.8 3.5 7.8 7.7 0 4.3-3.4 7.7-7.8 7.7-4.4 0-7.7-3.3-7.7-7.6zm12.6-0.1c0-2.9-2.2-5-4.9-5-2.7 0-4.9 2.1-4.9 5 0 2.8 2.1 5 4.9 5 2.8 0 5-2.1 4.9-5z"/>
		<path class="s2" d="m481.1 135.8h-5.3l-1.2 3.4h-2.9l5.8-14.9h2.1l5.7 14.9h-2.9zm-4.5-2.5h3.7l-1.8-5.1z"/>
		<path fill-rule="evenodd" class="s2" d="m486.4 126.9v-2.6h11.4v2.6h-4.3v12.3h-2.8v-12.3z"/>
	</g>
</svg>