<?xml version="1.0" encoding="utf-8"?>
<!-- Generator: Adobe Illustrator 26.0.2, SVG Export Plug-In . SVG Version: 6.00 Build 0)  -->
<svg version="1.1" id="Layer_1" xmlns="http://www.w3.org/2000/svg" xmlns:xlink="http://www.w3.org/1999/xlink" x="0px" y="0px"
	 viewBox="0 0 595.3 138.3" style="enable-background:new 0 0 595.3 138.3;" xml:space="preserve">
<style type="text/css">
	.st0{fill:#52BD92;}
	.st1{fill:#13ABCE;}
	.st2{fill:#535A75;}
	.st3{fill:#EF3F41;}
	.st4{fill:#FFFFFF;}
</style>
<path class="st0" d="M5.5,113.2c-1.4,0-2.8-0.5-3.8-1.6c-2.1-2.1-2.1-5.5,0-7.6L37.7,68L1.7,32c-2.1-2.1-2.1-5.5,0-7.6
	c2.1-2.1,5.5-2.1,7.6,0l39.9,39.9c2.1,2.1,2.1,5.5,0,7.6L9.3,111.7C8.2,112.7,6.8,113.2,5.5,113.2"/>
<path class="st1" d="M113.3,5.1c0-0.1,0-0.3,0-0.4c0-0.1,0-0.3-0.1-0.4c0-0.1-0.1-0.3-0.1-0.4c0-0.1-0.1-0.3-0.1-0.4
	c0-0.1,0-0.2-0.1-0.2c0,0,0-0.1-0.1-0.1c-0.1-0.1-0.1-0.3-0.2-0.4c-0.1-0.1-0.1-0.2-0.2-0.3c-0.1-0.1-0.2-0.2-0.2-0.3
	c-0.1-0.1-0.2-0.2-0.2-0.3c-0.1-0.1-0.2-0.2-0.3-0.3c-0.1-0.1-0.2-0.2-0.3-0.3c-0.1-0.1-0.2-0.2-0.3-0.2c-0.1-0.1-0.2-0.2-0.3-0.2
	c-0.1-0.1-0.2-0.1-0.3-0.2c-0.1-0.1-0.2-0.1-0.4-0.2c0,0-0.1,0-0.1-0.1c-0.1,0-0.2,0-0.2-0.1c-0.1,0-0.3-0.1-0.4-0.1
	c-0.1,0-0.3-0.1-0.4-0.1c-0.1,0-0.3-0.1-0.4-0.1c-0.1,0-0.3,0-0.4,0c-0.1,0-0.2,0-0.2,0H90.9c-3,0-5.4,2.4-5.4,5.4
	c0,3,2.4,5.4,5.4,5.4H95L62.4,43.3L20.6,1.6c-2.1-2.1-5.5-2.1-7.6,0c-2.1,2.1-2.1,5.5,0,7.6l45.6,45.6c1,1.1,2.4,1.6,3.8,1.6
	c1.4,0,2.8-0.5,3.8-1.6l36.4-36.4v4.1c0,3,2.4,5.4,5.4,5.4c3,0,5.4-2.4,5.4-5.4V5.4C113.3,5.3,113.3,5.2,113.3,5.1"/>
<path class="st1" d="M107.9,108.2c-3,0-5.4,2.4-5.4,5.4v4.1L66.2,81.3c-2.1-2.1-5.5-2.1-7.6,0L13,126.8c-2.1,2.1-2.1,5.5,0,7.6
	c2.1,2.1,5.5,2.1,7.6,0l41.8-41.7L95,125.3h-4.1c-3,0-5.4,2.4-5.4,5.4c0,3,2.4,5.4,5.4,5.4h17.1c0.2,0,0.5,0,0.7-0.1
	c0.1,0,0.1,0,0.2,0c0.2,0,0.5-0.1,0.7-0.2c0,0,0,0,0.1,0c0.1,0,0.3-0.1,0.4-0.2c0,0,0.1,0,0.1-0.1c0.1-0.1,0.2-0.1,0.4-0.2
	c0.1-0.1,0.2-0.1,0.3-0.2c0.1-0.1,0.2-0.2,0.3-0.2c0.1-0.1,0.2-0.2,0.3-0.2c0.1-0.1,0.2-0.2,0.3-0.3c0.1-0.1,0.2-0.2,0.3-0.3
	c0.1-0.1,0.2-0.2,0.2-0.3c0.1-0.1,0.2-0.2,0.2-0.3c0.1-0.1,0.1-0.2,0.2-0.3c0.1-0.1,0.1-0.2,0.2-0.4c0,0,0-0.1,0.1-0.1
	c0-0.1,0-0.2,0.1-0.2c0-0.1,0.1-0.3,0.1-0.4c0-0.1,0.1-0.3,0.1-0.4c0-0.1,0-0.3,0.1-0.4c0-0.1,0-0.3,0-0.4c0-0.1,0-0.2,0-0.2v-17.1
	C113.3,110.6,110.9,108.2,107.9,108.2"/>
<path class="st2" d="M189.4,55.2c0,13.7-8.4,25.9-29.7,25.9h-11.2v26H131V28.7h30C181.4,28.7,189.4,41.8,189.4,55.2 M171.5,55
	c0-5.4-3.8-10.2-10.4-10.2h-12.6v20.5h11.9C168.1,65.3,171.5,60.2,171.5,55"/>
<path class="st2" d="M189.8,94.3l9.5-12.5c5.4,6.5,13.1,10.4,21.3,10.4c5.7,0,10.3-2.7,10.3-7.1c0-3.5-3-5.6-6.8-7.3
	c-4.9-2-11.4-3.8-17.1-6.9c-7-3.8-12.6-9.6-12.6-19.8c0-13.4,11.3-23.5,27.9-23.5c9.2,0,19,3.2,26.6,10.4l-8.7,13
	c-4.7-4.6-12.2-7-17.7-7c-6,0-9.3,2.8-9.3,6.5c0,3.6,3.3,5.5,6.4,6.9c4.1,1.8,11.3,4.3,16.6,6.8c8,3.6,14.1,9.4,14.1,19.9
	c0,14.1-11.8,24.5-29.8,24.5C208.2,108.5,197,103.5,189.8,94.3"/>
<path class="st2" d="M256.4,78.2c0-17.6,12.6-30.1,30.9-30.1c11.4,0,21.9,5.6,26.7,15.8l-11.2,6c-3.3-5.5-8.8-9.1-15.3-9.1
	c-10,0-17.3,7.5-17.3,17.4c0,9.9,7.1,17.4,16.9,17.4c6.4,0,12.7-3.7,15.5-9l11.2,6.6c-4.9,9.1-15.1,15.2-26.9,15.2
	C268.9,108.4,256.4,95.7,256.4,78.2"/>
<path class="st2" d="M313.8,78.2c0-16.6,12.5-30.2,30.7-30.2c18.2,0,30.7,13.6,30.7,30.2c0,16.8-12.5,30.3-30.7,30.3
	C326.3,108.6,313.8,95,313.8,78.2 M361.4,78.2c0-9.5-7.3-17.4-16.9-17.4c-9.5,0-16.9,7.8-16.9,17.4c0,9.8,7.3,17.5,16.9,17.5
	C354.1,95.7,361.4,88,361.4,78.2"/>
<path class="st2" d="M440.4,49.5v57.6h-13.1V100c-4.3,4.9-10.5,8.5-18.8,8.5c-16.6,0-28.5-13.4-28.5-30.4
	c0-17.3,12.1-29.9,28.5-29.9c8.3,0,14.3,3.7,18.8,8.7v-7.3H440.4z M427.6,78.2c0-9.5-6.9-17.5-17-17.5c-10.2,0-16.9,8-16.9,17.5
	c0,9.6,6.8,17.6,16.9,17.6C420.7,95.8,427.6,87.9,427.6,78.2"/>
<path class="st2" d="M492.1,103.7c-4.5,3.1-10.8,4.8-16.6,4.8c-13,0-19.7-7.8-19.7-22.5V61.2h-9.5V49.5h9.8V29.2h13.7v20.4H489v11.7
	h-19.3v24.3c0,6.8,2.4,10.4,8.4,10.4c3.7,0,6.9-1.3,9.8-3L492.1,103.7z"/>
<path class="st2" d="M267.2,129.1c0,2.5-1.6,4.8-5.4,4.8h-2.4v5.3h-2.7v-14.9h5.4C265.7,124.3,267.2,126.7,267.2,129.1 M264.4,129.1
	c0-1.2-0.8-2.3-2.3-2.3h-2.7v4.6h2.5C263.7,131.4,264.4,130.2,264.4,129.1"/>
<path class="st2" d="M270.6,131.8c0-4.3,3.4-7.8,7.7-7.8s7.8,3.5,7.8,7.7c0,4.3-3.4,7.7-7.8,7.7
	C273.8,139.4,270.6,136.1,270.6,131.8 M283.2,131.7c0-2.9-2.2-5-4.9-5c-2.7,0-4.9,2.1-4.9,5c0,2.8,2.1,5,4.9,5
	C281.1,136.7,283.2,134.6,283.2,131.7"/>
<polygon class="st2" points="288.7,124.3 291.7,124.3 294.8,134.5 298.4,124.3 300,124.3 303.6,134.5 306.7,124.3 309.7,124.3 
	304.8,139.2 302.6,139.2 299.2,129.1 295.9,139.2 293.7,139.2 "/>
<polygon class="st2" points="313.6,124.3 323.5,124.3 323.5,126.9 316.4,126.9 316.4,130.4 323,130.4 323,132.9 316.4,132.9 
	316.4,136.6 323.5,136.6 323.5,139.2 313.6,139.2 "/>
<path class="st2" d="M332.9,133.6h-1.8v5.6h-2.7v-14.9h5.6c3.4,0,5,2.2,5,4.7c0,1.8-0.9,3.6-3.1,4.3l3.8,5.9h-3.3L332.9,133.6z
	 M331.1,131.1h2.5c1.8,0,2.5-1.1,2.5-2.2c0-1.1-0.8-2.1-2.2-2.1h-2.8V131.1z"/>
<path class="st2" d="M349.6,136.6l1.7-1.9c1,1.4,2.4,2.2,3.9,2.2c1.4,0,2.3-0.7,2.3-1.7c0-0.8-0.6-1.3-1.4-1.7
	c-1-0.5-2.2-0.8-3.2-1.4c-1.3-0.8-2.3-1.9-2.3-3.7c0-2.4,2-4.3,4.9-4.3c1.7,0,3.4,0.6,4.8,2.1l-1.5,2c-0.9-1-2.2-1.5-3.2-1.5
	c-1.2,0-2,0.6-2,1.6c0,0.8,0.6,1.2,1.2,1.6c0.8,0.4,2.3,1,3.4,1.5c1.4,0.7,2.5,1.8,2.5,3.7c0,2.6-2.2,4.5-5.3,4.5
	C352.8,139.4,350.8,138.5,349.6,136.6"/>
<polygon class="st2" points="364.9,124.3 366.6,124.3 372.6,133 378.6,124.3 380.3,124.3 380.3,139.2 377.6,139.2 377.6,130.3 
	373.1,136.9 372.1,136.9 367.6,130.3 367.6,139.2 364.9,139.2 "/>
<path class="st2" d="M393.7,135.8h-5.3l-1.2,3.4h-2.9l5.8-14.9h2.1l5.7,14.9h-2.9L393.7,135.8z M389.2,133.3h3.7l-1.8-5.1
	L389.2,133.3z"/>
<path class="st2" d="M406.3,133.6h-1.8v5.6h-2.7v-14.9h5.6c3.4,0,5,2.2,5,4.7c0,1.8-0.9,3.6-3.1,4.3l3.8,5.9h-3.3L406.3,133.6z
	 M404.5,131.1h2.5c1.8,0,2.5-1.1,2.5-2.2c0-1.1-0.7-2.1-2.2-2.1h-2.8V131.1z"/>
<polygon class="st2" points="415.5,126.9 415.5,124.3 426.9,124.3 426.9,126.9 422.6,126.9 422.6,139.2 419.8,139.2 419.8,126.9 "/>
<path class="st2" d="M436.4,131.8c0-4.6,3.5-7.8,7.7-7.8c2.8,0,5.1,1.3,6.4,3.1l-1.9,1.8c-1.1-1.3-2.6-2.3-4.4-2.3
	c-2.8,0-5,2.1-5,5.1c0,2.9,2.2,5,5,5c1.8,0,3.4-0.9,4.5-2.3l1.9,1.7c-1.3,1.8-3.7,3.2-6.6,3.2C439.8,139.4,436.4,136.3,436.4,131.8"
	/>
<path class="st2" d="M453.7,131.8c0-4.3,3.4-7.8,7.7-7.8s7.8,3.5,7.8,7.7c0,4.3-3.4,7.7-7.8,7.7C457,139.4,453.7,136.1,453.7,131.8
	 M466.3,131.7c0-2.9-2.2-5-4.9-5c-2.7,0-4.9,2.1-4.9,5c0,2.8,2.1,5,4.9,5C464.2,136.7,466.4,134.6,466.3,131.7"/>
<path class="st2" d="M481.1,135.8h-5.3l-1.2,3.4h-2.9l5.8-14.9h2.1l5.7,14.9h-2.9L481.1,135.8z M476.6,133.3h3.7l-1.8-5.1
	L476.6,133.3z"/>
<polygon class="st2" points="486.4,126.9 486.4,124.3 497.8,124.3 497.8,126.9 493.5,126.9 493.5,139.2 490.7,139.2 490.7,126.9 "/>
<g>
	<g>
		<rect x="517.2" y="28.9" class="st3" width="78.1" height="78.1"/>
	</g>
	<g>
		<path class="st4" d="M523,103c-0.6-0.3-1.2-0.6-1.5-1.2s-0.6-1.1-0.6-1.9h2.9c0,0.4,0.2,0.7,0.4,0.9c0.2,0.2,0.6,0.3,0.9,0.3
			c0.4,0,0.7-0.1,0.9-0.3c0.2-0.2,0.3-0.4,0.3-0.8c0-0.3-0.1-0.5-0.3-0.7c-0.2-0.2-0.4-0.3-0.7-0.4c-0.3-0.1-0.6-0.2-1.1-0.4
			c-0.7-0.2-1.3-0.4-1.7-0.7c-0.5-0.2-0.8-0.5-1.2-1c-0.3-0.4-0.5-1-0.5-1.7c0-1,0.4-1.8,1.1-2.4c0.7-0.6,1.7-0.9,2.9-0.9
			c1.2,0,2.2,0.3,2.9,0.9c0.7,0.6,1.1,1.4,1.2,2.4h-2.9c0-0.4-0.2-0.6-0.4-0.8c-0.2-0.2-0.6-0.3-0.9-0.3c-0.3,0-0.6,0.1-0.8,0.3
			c-0.2,0.2-0.3,0.4-0.3,0.7c0,0.4,0.2,0.6,0.5,0.8c0.3,0.2,0.9,0.4,1.6,0.6c0.7,0.2,1.3,0.5,1.7,0.7s0.8,0.5,1.2,1
			c0.3,0.4,0.5,1,0.5,1.6c0,0.6-0.2,1.2-0.5,1.7c-0.3,0.5-0.8,0.9-1.4,1.2c-0.6,0.3-1.3,0.5-2.2,0.5
			C524.3,103.4,523.6,103.3,523,103z"/>
		<path class="st4" d="M540.3,92.3l-3.8,7.4v3.6h-2.7v-3.6l-3.8-7.4h3.1l2.1,4.6l2.1-4.6H540.3z"/>
		<path class="st4" d="M543.2,103c-0.6-0.3-1.1-0.6-1.5-1.2c-0.4-0.5-0.6-1.1-0.6-1.9h2.9c0,0.4,0.2,0.7,0.4,0.9
			c0.2,0.2,0.6,0.3,0.9,0.3c0.4,0,0.7-0.1,0.9-0.3c0.2-0.2,0.3-0.4,0.3-0.8c0-0.3-0.1-0.5-0.3-0.7c-0.2-0.2-0.4-0.3-0.7-0.4
			c-0.3-0.1-0.6-0.2-1.1-0.4c-0.7-0.2-1.3-0.4-1.7-0.7c-0.5-0.2-0.8-0.5-1.2-1c-0.3-0.4-0.5-1-0.5-1.7c0-1,0.4-1.8,1.1-2.4
			c0.7-0.6,1.7-0.9,2.9-0.9c1.2,0,2.2,0.3,2.9,0.9c0.7,0.6,1.1,1.4,1.2,2.4h-2.9c0-0.4-0.2-0.6-0.4-0.8c-0.2-0.2-0.6-0.3-0.9-0.3
			c-0.3,0-0.6,0.1-0.8,0.3c-0.2,0.2-0.3,0.4-0.3,0.7c0,0.4,0.2,0.6,0.5,0.8c0.3,0.2,0.9,0.4,1.6,0.6c0.7,0.2,1.3,0.5,1.7,0.7
			c0.4,0.2,0.8,0.5,1.2,1c0.3,0.4,0.5,1,0.5,1.6c0,0.6-0.2,1.2-0.5,1.7c-0.3,0.5-0.8,0.9-1.4,1.2c-0.6,0.3-1.3,0.5-2.2,0.5
			C544.6,103.4,543.8,103.3,543.2,103z"/>
		<path class="st4" d="M559,92.3v2.2h-2.9v8.9h-2.7v-8.9h-2.9v-2.2H559z"/>
		<path class="st4" d="M563,94.4v2.2h3.6v2.1H563v2.4h4.1v2.2h-6.8v-11h6.8v2.2H563z"/>
		<path class="st4" d="M581.3,92.3v11h-2.7v-6.6l-2.5,6.6H574l-2.5-6.6v6.6h-2.7v-11h3.2l3.1,7.6l3.1-7.6H581.3z"/>
		<path class="st4" d="M585.1,103c-0.6-0.3-1.1-0.6-1.5-1.2s-0.6-1.1-0.6-1.9h2.9c0,0.4,0.2,0.7,0.4,0.9c0.2,0.2,0.6,0.3,0.9,0.3
			c0.4,0,0.7-0.1,0.9-0.3c0.2-0.2,0.3-0.4,0.3-0.8c0-0.3-0.1-0.5-0.3-0.7c-0.2-0.2-0.4-0.3-0.7-0.4c-0.3-0.1-0.6-0.2-1.1-0.4
			c-0.7-0.2-1.3-0.4-1.7-0.7c-0.5-0.2-0.8-0.5-1.2-1c-0.3-0.4-0.5-1-0.5-1.7c0-1,0.4-1.8,1.1-2.4c0.7-0.6,1.7-0.9,2.9-0.9
			c1.2,0,2.2,0.3,2.9,0.9c0.7,0.6,1.1,1.4,1.2,2.4h-2.9c0-0.4-0.2-0.6-0.4-0.8c-0.2-0.2-0.6-0.3-0.9-0.3c-0.3,0-0.6,0.1-0.8,0.3
			c-0.2,0.2-0.3,0.4-0.3,0.7c0,0.4,0.2,0.6,0.5,0.8c0.3,0.2,0.9,0.4,1.6,0.6c0.7,0.2,1.3,0.5,1.7,0.7c0.4,0.2,0.8,0.5,1.2,1
			c0.3,0.4,0.5,1,0.5,1.6c0,0.6-0.2,1.2-0.5,1.7c-0.3,0.5-0.8,0.9-1.4,1.2c-0.6,0.3-1.3,0.5-2.2,0.5
			C586.5,103.4,585.7,103.3,585.1,103z"/>
	</g>
	<path class="st4" d="M591.9,81c-0.1-1.3-0.8-2.3-2-3c-1.2-0.6-3-1-5.5-1c-0.8,0-1.5,0-2.2,0.1c-0.7,0.1-1.3,0.3-1.9,0.5
		c-0.6,0.2-1.1,0.5-1.5,0.9c-0.4,0.4-0.6,0.8-0.8,1.2c-0.1,0.4-0.2,0.8-0.2,1.1c0,0.9,0.3,1.7,0.8,2.3s1.5,1,2.7,1.2l4.2,0.6
		c0.7,0.1,1.2,0.2,1.5,0.4c0.3,0.1,0.4,0.4,0.4,0.7c0,0.4-0.2,0.7-0.6,1c-0.4,0.2-0.9,0.3-1.6,0.3c-0.9,0-1.6-0.1-2-0.3
		c-0.4-0.2-0.7-0.6-0.8-1.2h-4.9c0.1,1,0.4,1.8,1,2.4c0.6,0.6,1.4,1,2.4,1.3c1,0.3,2.4,0.4,4.1,0.4c2.5,0,4.3-0.4,5.5-1.1
		c1.2-0.7,1.7-1.7,1.7-3.1c0-1-0.3-1.7-0.9-2.3c-0.6-0.6-1.5-1-2.9-1.2l-1.2-0.2c-0.5-0.1-1.1-0.1-1.7-0.2l-1.5-0.2
		c-0.3,0-0.7-0.1-1.2-0.2c-0.5-0.1-0.8-0.3-0.8-0.7c0-0.4,0.2-0.7,0.6-0.9c0.4-0.2,0.9-0.3,1.6-0.3c0.8,0,1.5,0.1,1.9,0.3
		c0.4,0.2,0.7,0.6,0.8,1.1H591.9z M576.3,81c-0.1-1.3-0.8-2.3-2-3c-1.2-0.6-3-1-5.5-1c-0.8,0-1.5,0-2.2,0.1
		c-0.7,0.1-1.3,0.3-1.9,0.5c-0.6,0.2-1.1,0.5-1.5,0.9c-0.4,0.4-0.6,0.8-0.8,1.2c-0.1,0.4-0.2,0.8-0.2,1.1c0,0.9,0.3,1.7,0.8,2.3
		c0.6,0.6,1.5,1,2.7,1.2l4.2,0.6c0.7,0.1,1.2,0.2,1.5,0.4c0.3,0.1,0.4,0.4,0.4,0.7c0,0.4-0.2,0.7-0.6,1c-0.4,0.2-0.9,0.3-1.6,0.3
		c-0.9,0-1.6-0.1-2-0.3c-0.4-0.2-0.7-0.6-0.8-1.2h-4.9c0.1,1,0.4,1.8,1,2.4c0.6,0.6,1.4,1,2.4,1.3c1,0.3,2.4,0.4,4.1,0.4
		c2.5,0,4.3-0.4,5.5-1.1c1.2-0.7,1.7-1.7,1.7-3.1c0-1-0.3-1.7-0.9-2.3c-0.6-0.6-1.5-1-2.9-1.2l-1.2-0.2c-0.5-0.1-1.1-0.1-1.7-0.2
		l-1.5-0.2c-0.3,0-0.7-0.1-1.2-0.2c-0.5-0.1-0.8-0.3-0.8-0.7c0-0.4,0.2-0.7,0.6-0.9s0.9-0.3,1.6-0.3c0.8,0,1.5,0.1,1.9,0.3
		c0.4,0.2,0.7,0.6,0.8,1.1H576.3z M560.4,77.5h-4.2v12.1h4.2V77.5z M551.2,89.6l3.7-12.1h-4l-2,8.2h0l-2.3-8.2h-3.5l-2.3,8.2h0
		l-2-8.2h-4l3.7,12.1h4.1l2.2-7.9h0l2.2,7.9H551.2z M534,81c-0.1-1.3-0.8-2.3-2-3c-1.2-0.6-3-1-5.5-1c-0.8,0-1.5,0-2.2,0.1
		c-0.7,0.1-1.3,0.3-1.9,0.5c-0.6,0.2-1.1,0.5-1.5,0.9c-0.4,0.4-0.6,0.8-0.8,1.2c-0.1,0.4-0.2,0.8-0.2,1.1c0,0.9,0.3,1.7,0.8,2.3
		c0.6,0.6,1.5,1,2.7,1.2l4.2,0.6c0.7,0.1,1.2,0.2,1.5,0.4c0.3,0.1,0.4,0.4,0.4,0.7c0,0.4-0.2,0.7-0.6,1c-0.4,0.2-0.9,0.3-1.6,0.3
		c-0.9,0-1.6-0.1-2-0.3c-0.4-0.2-0.7-0.6-0.8-1.2h-4.9c0.1,1,0.4,1.8,1,2.4c0.6,0.6,1.4,1,2.4,1.3c1,0.3,2.4,0.4,4.1,0.4
		c2.5,0,4.3-0.4,5.5-1.1c1.2-0.7,1.7-1.7,1.7-3.1c0-1-0.3-1.7-0.9-2.3c-0.6-0.6-1.5-1-2.9-1.2l-1.2-0.2c-0.5-0.1-1.1-0.1-1.7-0.2
		l-1.5-0.2c-0.3,0-0.7-0.1-1.2-0.2c-0.5-0.1-0.8-0.3-0.8-0.7c0-0.4,0.2-0.7,0.6-0.9s0.9-0.3,1.6-0.3c0.8,0,1.5,0.1,1.9,0.3
		c0.4,0.2,0.7,0.6,0.8,1.1H534z"/>
	<path class="st4" d="M574.6,51.2l-5.4-5.4c-0.6-0.6-1.5-0.6-2.1,0c-0.6,0.6-0.6,1.5,0,2.1l1.1,1.1h-9V38.4l1.3,1.3
		c0.3,0.3,0.7,0.4,1,0.4c0.4,0,0.8-0.1,1-0.4c0.6-0.6,0.6-1.5,0-2.1l-5.4-5.4c-0.6-0.6-1.5-0.6-2.1,0l-5.4,5.4
		c-0.6,0.6-0.6,1.5,0,2.1s1.5,0.6,2.1,0l1.1-1.1V49h-16.2v6.1h16.2v14.7h6.1V55.2h9.2l-1.3,1.3c-0.3,0.3-0.4,0.7-0.4,1
		s0.1,0.8,0.4,1c0.6,0.6,1.5,0.6,2.1,0l5.4-5.4C575.2,52.7,575.2,51.7,574.6,51.2z"/>
	<g>
		<path class="st4" d="M527.1,65.1c-0.2,0.4-0.5,0.7-1,0.9c-0.4,0.2-1,0.4-1.7,0.4H523v3.2h-1.7v-8.3h3c0.6,0,1.2,0.1,1.6,0.3
			c0.5,0.2,0.8,0.5,1,0.9c0.2,0.4,0.3,0.8,0.3,1.3C527.4,64.3,527.3,64.7,527.1,65.1z M525.4,64.8c0.2-0.2,0.3-0.5,0.3-0.9
			c0-0.8-0.5-1.2-1.4-1.2H523v2.4h1.3C524.8,65.1,525.1,65,525.4,64.8z"/>
		<path class="st4" d="M529.9,69.4c-0.5-0.2-0.8-0.5-1.1-0.9c-0.3-0.4-0.4-0.8-0.4-1.3h1.8c0,0.3,0.1,0.6,0.4,0.8
			c0.2,0.2,0.5,0.3,0.9,0.3c0.4,0,0.7-0.1,0.9-0.3c0.2-0.2,0.3-0.4,0.3-0.7c0-0.2-0.1-0.4-0.2-0.6c-0.2-0.2-0.3-0.3-0.6-0.4
			c-0.2-0.1-0.5-0.2-0.9-0.3c-0.5-0.2-1-0.3-1.3-0.5c-0.3-0.2-0.6-0.4-0.9-0.7c-0.2-0.3-0.4-0.7-0.4-1.3c0-0.5,0.1-0.9,0.4-1.3
			c0.2-0.4,0.6-0.6,1-0.8c0.4-0.2,0.9-0.3,1.5-0.3c0.9,0,1.5,0.2,2.1,0.6c0.5,0.4,0.8,1,0.9,1.7h-1.8c0-0.3-0.1-0.5-0.4-0.7
			c-0.2-0.2-0.5-0.3-0.9-0.3c-0.3,0-0.6,0.1-0.8,0.2c-0.2,0.2-0.3,0.4-0.3,0.7c0,0.2,0.1,0.4,0.2,0.6c0.1,0.1,0.3,0.3,0.5,0.4
			c0.2,0.1,0.5,0.2,0.9,0.3c0.5,0.2,1,0.3,1.3,0.5c0.3,0.2,0.6,0.4,0.9,0.7c0.2,0.3,0.4,0.7,0.4,1.2c0,0.4-0.1,0.9-0.3,1.2
			c-0.2,0.4-0.6,0.7-1,0.9c-0.4,0.2-1,0.3-1.6,0.3C530.8,69.7,530.3,69.6,529.9,69.4z"/>
		<path class="st4" d="M535.9,63.3c0.4-0.6,0.9-1.1,1.5-1.5c0.6-0.4,1.3-0.5,2.1-0.5c0.9,0,1.7,0.2,2.4,0.7c0.7,0.5,1.2,1.1,1.5,2
			h-1.9c-0.2-0.4-0.5-0.7-0.8-0.9c-0.3-0.2-0.7-0.3-1.2-0.3c-0.5,0-0.9,0.1-1.3,0.3c-0.4,0.2-0.7,0.5-0.9,1
			c-0.2,0.4-0.3,0.9-0.3,1.4c0,0.5,0.1,1,0.3,1.4c0.2,0.4,0.5,0.7,0.9,1c0.4,0.2,0.8,0.3,1.3,0.3c0.5,0,0.8-0.1,1.2-0.3
			c0.3-0.2,0.6-0.5,0.8-0.9h1.9c-0.3,0.8-0.8,1.5-1.5,2c-0.7,0.5-1.5,0.7-2.4,0.7c-0.8,0-1.5-0.2-2.1-0.5c-0.6-0.4-1.1-0.9-1.5-1.5
			c-0.4-0.6-0.6-1.4-0.6-2.2C535.4,64.6,535.6,63.9,535.9,63.3z"/>
	</g>
</g>
</svg>
